<svg width="111" height="28" viewBox="0 0 111 28" fill="none" xmlns="http://www.w3.org/2000/svg">
<path fill-rule="evenodd" clip-rule="evenodd" d="M59.2788 27.5745C60.263 27.5745 61.0653 26.7374 61.0653 25.6717V10.3357C61.0653 9.30827 60.263 8.47099 59.2788 8.47099C58.2578 8.47099 57.4555 9.30827 57.4555 10.3357V25.6717C57.4555 26.7374 58.2578 27.5745 59.2788 27.5745ZM59.2788 4.66557C59.7525 4.66557 60.227 4.47528 60.5548 4.1328C60.8826 3.79031 61.0653 3.29565 61.0653 2.80085C61.0653 2.30605 60.8826 1.81138 60.5548 1.4689C60.227 1.12629 59.7525 0.89801 59.2788 0.89801C58.8044 0.89801 58.3306 1.12629 58.0028 1.4689C57.6743 1.81138 57.4555 2.30605 57.4555 2.80085C57.4555 3.29552 57.6743 3.79031 58.0028 4.1328C58.3306 4.47528 58.8044 4.66557 59.2788 4.66557ZM22.2359 8.43353C22.0118 8.43353 20.4433 8.3167 20.3312 9.25228L20.3039 18.4411C20.3039 19.6107 20.2937 20.9329 20.3039 21.0142L20.303 23.2362V25.634C20.303 26.6994 21.2233 27.5635 22.2077 27.5635C23.2286 27.5635 24.0008 26.6994 24.0008 25.634V18.2073C24.0008 15.0106 25.42 12.2426 28.4825 12.2426C31.545 12.2426 32.9647 14.5427 32.9647 17.7394V25.634C32.9647 26.6994 33.7691 27.5635 34.7536 27.5635C35.7744 27.5635 36.4344 26.6994 36.4344 25.634V21.8328V17.9734C36.4344 12.6837 33.3262 8.54511 28.4826 8.3832C26.4939 8.31683 25.3733 8.73409 23.6927 9.25241C23.4686 8.61713 23.0677 8.43366 22.2361 8.43366L22.2359 8.43353ZM44.616 23.7691H52.3453C53.3295 23.7691 54.1317 24.6063 54.1317 25.6339C54.1317 26.6612 53.3294 27.5366 52.3453 27.5366H41.0062C40.3136 27.5366 39.6571 27.118 39.3656 26.4711C39.0378 25.786 39.1107 25.0249 39.5483 24.4542L48.6625 12.2006H40.9332C39.949 12.2006 39.1467 11.3253 39.1467 10.2979C39.1467 9.27042 39.949 8.43327 40.9332 8.43327H52.2721C52.9649 8.43327 53.6212 8.81373 53.9127 9.4987C54.2406 10.1457 54.1677 10.9069 53.7301 11.4775L44.616 23.7693V23.7691ZM64.926 9.25228C65.0381 8.3167 66.257 8.43353 66.7188 8.43353C67.3911 8.43353 68.2874 8.3167 68.3995 9.25228C69.632 8.85999 70.7526 8.5505 72.1955 8.5091C74.3829 8.5091 76.352 9.49843 77.7008 11.1349C79.0497 9.49857 81.0189 8.5091 83.2059 8.5091C87.2526 8.5091 90.5345 11.9341 90.5345 16.1201C90.5345 16.1962 90.5345 16.2341 90.4978 16.2722C90.5345 16.3483 90.5345 16.3864 90.5345 16.4625V25.7098C90.5345 26.7752 89.6955 27.6127 88.7113 27.6127C87.727 27.6127 86.9249 26.7752 86.9249 25.7098V16.4625V16.2722V16.1201C86.9249 13.9889 85.2474 12.2764 83.206 12.2764C81.1641 12.2764 79.4875 13.9889 79.4875 16.1201V25.7098C79.4875 26.7752 78.6852 27.6127 77.7009 27.6127C76.7167 27.6127 75.8778 26.7752 75.8778 25.7098V16.1201C75.8778 13.9889 74.2372 12.2764 72.1956 12.2764C70.2094 12.2764 68.5682 13.8971 68.4806 15.9471V20.4425C68.4806 20.4834 68.4792 20.524 68.4769 20.5642V25.7099C68.4769 26.7754 67.6746 27.6128 66.6905 27.6128C65.6695 27.6128 64.8672 26.7754 64.8672 25.7099V20.5639C64.8647 20.5238 64.8637 20.4834 64.8637 20.4425L64.9262 9.25228H64.926ZM101.714 27.5366C106.782 27.5366 110.866 23.2365 110.866 17.9848C110.866 12.6951 106.782 8.43301 101.714 8.43301C96.6829 8.43301 92.5627 12.6951 92.5627 17.9848C92.5627 23.2363 96.6829 27.5366 101.714 27.5366ZM101.714 12.2004C104.777 12.2004 107.256 14.7882 107.256 17.9848C107.256 21.1433 104.777 23.7691 101.714 23.7691C98.6513 23.7691 96.1725 21.1433 96.1725 17.9848C96.1725 14.7882 98.6513 12.2004 101.714 12.2004Z" fill="url(#paint0_linear)"/>
<path d="M9.92866 27.4231C8.27322 27.4492 6.71384 26.9006 5.37645 26.0461C4.03225 25.1873 2.96921 24.0397 2.18026 22.6066C1.39145 21.1673 1 19.5938 1 17.88C1 16.2456 1.37395 14.7392 2.12184 13.3487C2.86986 11.9643 3.88066 10.8421 5.16014 10.0005C6.43974 9.1528 7.8654 8.73199 9.43724 8.73199C10.8862 8.73199 12.2184 9.10405 13.4338 9.85406C14.6491 10.6042 15.6249 11.6165 16.3612 12.8851C17.0974 14.1537 17.4655 15.5624 17.4655 17.1116C17.4655 17.6606 17.372 18.1301 17.185 18.5203C16.998 18.9168 16.6533 19.112 16.1508 19.112H3.68789C3.86895 20.1 4.24289 21.0148 4.80973 21.8564C5.37657 22.692 6.08871 23.3703 6.94829 23.8812C7.81239 24.3948 9.02451 24.6451 10.0878 24.6451C13.4755 24.6451 13.9983 23.3098 14.7047 22.8113C15.219 22.4486 15.9633 22.3452 16.3548 22.7531C17.0974 23.5271 16.7203 24.4161 15.9458 25.2472C14.3055 27.008 12.1032 27.3888 9.92879 27.4233L9.92866 27.4231ZM14.8478 16.465C14.7484 15.538 14.4446 14.6903 13.9422 13.9219C13.4397 13.1535 12.8029 12.5436 12.0258 12.0923C11.2486 11.6349 10.3897 11.4093 9.45487 11.4093C8.485 11.4093 7.60263 11.641 6.80211 12.1045C6.00171 12.5741 5.34144 13.184 4.80973 13.9464C4.27802 14.7087 3.91578 15.5504 3.72302 16.4652H14.8479L14.8478 16.465Z" fill="#042D48" stroke="#042D48" stroke-width="1.07808" stroke-miterlimit="22.9256"/>
<defs>
<linearGradient id="paint0_linear" x1="20.4881" y1="14.2308" x2="111.017" y2="14.2308" gradientUnits="userSpaceOnUse">
<stop stop-color="#042D48"/>
<stop offset="1" stop-color="#042D48"/>
</linearGradient>
</defs>
</svg>
