<svg width="40" height="42" viewBox="0 0 40 42" fill="none" xmlns="http://www.w3.org/2000/svg">
<path fill-rule="evenodd" clip-rule="evenodd" d="M16.3825 17.0444C16.3825 16.5925 16.7488 16.2261 17.2008 16.2261H17.2878C17.7395 16.2261 18.1057 16.5921 18.1061 17.0436C18.4701 18.0025 19.3882 20.0281 20.478 21.2273C21.92 22.8142 23.4433 23.8678 25.4831 23.8678C27.5536 23.8678 29.0752 22.9885 30.6531 21.2309C31.7146 20.0486 32.6232 18.0869 33.0034 17.1074C33.0028 17.0942 33.0025 17.0809 33.0025 17.0675V17.0444C33.0025 16.5925 33.3688 16.2261 33.8208 16.2261H33.9078C34.3597 16.2261 34.7261 16.5925 34.7261 17.0444V17.0675C34.7261 17.258 34.661 17.4334 34.5518 17.5725C34.1611 18.6074 33.1431 20.871 31.8529 22.3081C30.0782 24.2849 28.1525 25.4802 25.4831 25.4802C22.7829 25.4802 20.8589 24.0442 19.2846 22.3117C18.0046 20.9031 17.0052 18.6825 16.6026 17.6259C16.466 17.4797 16.3825 17.2833 16.3825 17.0675V17.0444Z" fill="#042D48"/>
<path d="M9.27583 29.9183C11.9987 29.9183 14.2517 27.7862 14.2517 25.101C14.2517 22.4158 11.9987 20.2837 9.27583 20.2837C6.55292 20.2837 4.3 22.4158 4.3 25.101C4.3 27.7862 6.55292 29.9183 9.27583 29.9183Z" stroke="#042D48" stroke-width="1.4"/>
<path d="M20.6182 5.64175C20.5464 5.44805 20.6326 5.23404 20.8181 5.14572L22.6805 4.25886C22.9037 4.15259 23.1728 4.27114 23.2466 4.50825L24.2373 7.69089C24.3173 7.94803 24.127 8.20556 23.857 8.20556L21.8549 8.20556C21.6833 8.20556 21.5288 8.09814 21.4692 7.93754L20.6182 5.64175Z" fill="#042D48"/>
<path d="M30.5368 5.69746C30.6085 5.50402 30.5225 5.29027 30.3374 5.20174L28.4864 4.31628C28.2631 4.20949 27.9935 4.32798 27.9196 4.56536L26.9292 7.74721C26.8491 8.00435 27.0394 8.26187 27.3095 8.26187L29.2997 8.26187C29.4713 8.26187 29.6259 8.15445 29.6855 7.99385L30.5368 5.69746Z" fill="#042D48"/>
<path fill-rule="evenodd" clip-rule="evenodd" d="M19.8743 7.76702V7.79066H20.5207L19.8743 6.13095V6.15458C18.8071 6.15731 16.4744 6.75816 15.6208 9.22396C14.8389 11.4828 15.3027 13.5909 15.6021 14.7441L15.6068 14.7624L15.6124 14.7805L16.032 16.1324C16.1414 15.6768 16.5515 15.3382 17.0407 15.3382H17.1206C17.2528 15.3382 17.3792 15.3629 17.4955 15.408L17.1581 14.3208C16.8751 13.2271 16.5303 11.5258 17.1445 9.75143C17.6867 8.18539 19.1854 7.76994 19.8743 7.76702Z" fill="#042D48"/>
<path fill-rule="evenodd" clip-rule="evenodd" d="M31.2932 6.13095V7.79066H30.6469L31.2932 6.13095ZM35.5137 9.22396C34.6605 6.75935 32.3672 6.15457 31.2936 6.15457V7.76701C31.9695 7.76701 33.4436 8.17299 33.99 9.75143C34.6015 11.5179 34.2624 13.2118 33.9803 14.306L33.5734 15.4598C33.7189 15.3822 33.885 15.3382 34.0613 15.3382H34.1412C34.5737 15.3382 34.9444 15.6028 35.1001 15.979L35.5124 14.8096L35.5238 14.7773L35.5324 14.7441C35.8318 13.5909 36.2956 11.4828 35.5137 9.22396Z" fill="#042D48"/>
<path fill-rule="evenodd" clip-rule="evenodd" d="M26.1838 27.6987C26.1838 27.8012 26.1645 27.8993 26.1292 27.9899V31.7915C26.1292 36.7575 22.5293 38.6633 21.3969 39.2085C20.4302 39.6739 18.9662 39.9404 17.516 39.973C16.0645 40.0056 14.474 39.8077 13.2718 39.2193C12.6525 38.9161 11.4859 38.2203 10.4616 37.1746C9.49857 36.1916 8.59285 34.8266 8.49175 33.1346C8.4506 33.0378 8.42792 32.9319 8.42792 32.8209C8.42792 32.3632 8.81318 31.9923 9.28843 31.9923C9.76368 31.9923 10.1489 32.3632 10.1489 32.8209C10.1489 32.913 10.1333 33.0016 10.1045 33.0844C10.1883 34.2248 10.8078 35.2239 11.6134 36.0462C12.4779 36.9287 13.4802 37.526 13.9807 37.7711C14.8547 38.1988 16.1515 38.3908 17.4798 38.3609C18.8095 38.3311 20.0179 38.0828 20.6974 37.7557C21.7029 37.2716 24.5168 35.7721 24.5168 31.7915V27.9882C24.4819 27.8981 24.4628 27.8006 24.4628 27.6987C24.4628 27.2411 24.8481 26.8701 25.3233 26.8701C25.7986 26.8701 26.1838 27.2411 26.1838 27.6987Z" fill="#042D48"/>
</svg>
