<svg width="38" height="34" viewBox="0 0 38 34" fill="none" xmlns="http://www.w3.org/2000/svg">
<path fill-rule="evenodd" clip-rule="evenodd" d="M17.4039 0.712606C15.5609 -0.516486 13.4391 0.0932038 12.4392 0.693147C11.9944 0.96003 11.5868 1.35942 11.2787 1.72143C10.9822 2.0697 10.7162 2.45629 10.5835 2.75634L10.5765 2.7711C10.5131 2.75951 10.4246 2.73785 10.3061 2.69834C9.01536 2.2681 7.29513 2.69303 6.24126 3.7469C5.23992 4.74824 4.63448 6.15006 4.63491 7.57096C4.63508 8.12293 4.62597 8.38524 4.55511 8.61507C4.4941 8.81295 4.36562 9.04588 3.98227 9.42923C3.81161 9.59989 3.61484 9.78181 3.39027 9.98942L3.26034 10.1096C2.98701 10.3629 2.68569 10.6455 2.3873 10.9537C1.79365 11.567 1.17982 12.3132 0.781861 13.2086C0.021481 14.9195 -0.245258 16.7999 0.255472 19.3038C0.751165 21.7826 2.28701 23.1218 3.01772 23.759L3.01773 23.759C3.13628 23.8624 3.23364 23.9473 3.30192 24.0156C3.44707 24.1607 3.59269 24.2853 3.70322 24.3798L3.76149 24.4298C3.89012 24.5408 3.94599 24.5967 3.97851 24.6401C3.99835 24.6665 4.00215 24.678 4.00529 24.6999C4.01036 24.7355 4.0144 24.8289 3.96642 25.0207C3.86786 25.415 3.7708 25.9965 3.77083 26.6104C3.77085 27.2098 3.86298 27.933 4.2252 28.5368C4.4872 28.9735 4.7706 29.4248 5.1779 29.8374C5.59405 30.2589 6.11195 30.6139 6.82604 30.9199C7.5485 31.2295 8.24912 31.3142 8.80183 31.3057C9.0788 31.3015 9.32513 31.2738 9.52686 31.2362C9.71001 31.202 9.90764 31.1504 10.0604 31.074C10.2582 30.9751 10.4093 30.9683 10.4839 30.9886C10.5133 30.9966 10.5424 31.0108 10.576 31.0454C10.6125 31.083 10.6717 31.1633 10.7255 31.3249C10.8081 31.5727 10.9663 31.8177 11.121 32.0214C11.2857 32.2384 11.4889 32.4635 11.7101 32.6752C12.1348 33.0819 12.7073 33.517 13.2822 33.7087C13.6554 33.8331 14.4153 33.939 15.2201 33.9008C16.0215 33.8628 17.0363 33.6754 17.8029 33.0621C18.7536 32.3015 19.9907 30.8954 19.9908 28.8363V20.595C20.0259 20.5039 20.0451 20.405 20.0451 20.3015C20.0451 19.8505 19.6796 19.485 19.2286 19.485C18.7777 19.485 18.4121 19.8505 18.4121 20.3015C18.4121 20.405 18.4314 20.5041 18.4665 20.5952V28.8363C18.4665 30.2349 17.6289 31.2493 16.8507 31.8719C16.456 32.1877 15.8284 32.346 15.1479 32.3783C14.4709 32.4104 13.9097 32.3111 13.7642 32.2627C13.5028 32.1755 13.1244 31.9191 12.7641 31.5742C12.5928 31.4102 12.4449 31.2445 12.3351 31.0998C12.2803 31.0277 12.2389 30.9659 12.2098 30.9165C12.1826 30.8703 12.173 30.8464 12.1716 30.8431C12.1715 30.8427 12.1714 30.8426 12.1715 30.8429C11.9414 30.1524 11.4917 29.6831 10.8841 29.5178C10.3331 29.3679 9.79166 29.5073 9.39275 29.7037L9.39308 29.7034C9.39301 29.7033 9.39089 29.7039 9.38656 29.7052C9.37094 29.7098 9.32672 29.723 9.24743 29.7378C9.13035 29.7596 8.96969 29.7787 8.77848 29.7816C8.39481 29.7875 7.91425 29.728 7.42647 29.5189C6.86927 29.2801 6.52272 29.03 6.26259 28.7665C5.9936 28.494 5.78889 28.1804 5.53226 27.7527C5.37587 27.492 5.29508 27.0914 5.29506 26.6103C5.29504 26.1436 5.37083 25.6877 5.44515 25.3904C5.52337 25.0776 5.55584 24.7759 5.51422 24.4845C5.47067 24.1795 5.35265 23.932 5.19817 23.7259C5.05637 23.5367 4.88541 23.3864 4.75732 23.2758L4.68315 23.2121L4.68311 23.2121C4.57371 23.1183 4.47938 23.0374 4.37972 22.9378C4.26553 22.8236 4.12929 22.7023 3.97939 22.5689C3.22844 21.9006 2.1345 20.9271 1.75011 19.0049C1.30641 16.7862 1.55198 15.2289 2.17472 13.8277C2.46833 13.1671 2.94371 12.5705 3.48249 12.0139C3.75032 11.7372 4.02603 11.4781 4.29622 11.2278L4.41944 11.1138L4.41952 11.1137C4.64329 10.9069 4.86628 10.7008 5.06007 10.507C5.54117 10.0259 5.85079 9.58598 6.01168 9.06418C6.15959 8.58445 6.15938 8.09098 6.15916 7.60144L6.15915 7.57049C6.15885 6.57092 6.59149 5.55227 7.31906 4.8247C7.99409 4.14966 9.11943 3.90947 9.82408 4.14435C10.3975 4.33549 10.9639 4.40098 11.4252 4.10765C11.652 3.96337 11.7803 3.77496 11.8547 3.63704C11.8904 3.57071 11.9172 3.50923 11.9331 3.4723L11.9522 3.42777L11.9576 3.41593L11.9674 3.39636L11.9762 3.37578C12.0194 3.27498 12.1804 3.01363 12.4393 2.70944C12.6929 2.41158 12.9767 2.14822 13.2234 2.00017C13.9524 1.56277 15.3978 1.20681 16.5582 1.98071C17.5421 2.63688 18.4665 3.47532 18.4665 4.97736V15.4671C18.4313 15.5584 18.412 15.6575 18.412 15.7612C18.412 16.2121 18.7776 16.5777 19.2285 16.5777C19.6794 16.5777 20.045 16.2121 20.045 15.7612C20.045 15.6578 20.0258 15.559 19.9908 15.468V4.97736C19.9908 2.67581 18.494 1.43955 17.4039 0.712606Z" fill="#042D48"/>
<path fill-rule="evenodd" clip-rule="evenodd" d="M21.0527 0.712606C22.8957 -0.516486 25.0175 0.0932037 26.0174 0.693147C26.4622 0.96003 26.8698 1.35942 27.1779 1.72143C27.4744 2.06971 27.7404 2.4563 27.8731 2.75635L27.8801 2.7711C27.9435 2.75951 28.032 2.73785 28.1505 2.69834C29.4412 2.2681 31.1615 2.69303 32.2153 3.7469C33.2167 4.74824 33.8221 6.15005 33.8217 7.57096C33.8215 8.12287 33.8307 8.3852 33.9015 8.61502C33.9626 8.81291 34.0911 9.04586 34.4745 9.42923C35.2615 10.2163 36.4171 11.4507 37.1677 13.1395C37.9377 14.872 38.1058 16.8268 37.6104 19.3039C37.0504 22.1041 35.7959 23.3743 35.1547 24.0156C35.0095 24.1607 34.8639 24.2852 34.7534 24.3798L34.7534 24.3798L34.6951 24.4298C34.5665 24.5408 34.5106 24.5967 34.4781 24.64C34.4582 24.6665 34.4544 24.678 34.4513 24.6999C34.4462 24.7355 34.4422 24.8289 34.4902 25.0207C34.5887 25.415 34.6858 25.9965 34.6858 26.6104C34.6857 27.2098 34.5936 27.933 34.2314 28.5368C33.9694 28.9735 33.686 29.4248 33.2787 29.8374C32.8626 30.2589 32.3447 30.6139 31.6306 30.9199C30.9081 31.2295 30.2075 31.3142 29.6548 31.3057C29.3778 31.3015 29.1315 31.2738 28.9297 31.2362C28.7466 31.202 28.549 31.1504 28.3962 31.074C28.1984 30.9751 28.0473 30.9683 27.9727 30.9886C27.9433 30.9966 27.9142 31.0108 27.8806 31.0454C27.8441 31.083 27.7849 31.1633 27.7311 31.3249C27.6485 31.5727 27.4903 31.8177 27.3356 32.0214C27.1709 32.2384 26.9677 32.4635 26.7465 32.6752C26.3218 33.0819 25.7493 33.517 25.1744 33.7087C24.8012 33.8331 24.0413 33.939 23.2365 33.9008C22.4351 33.8628 21.4203 33.6754 20.6537 33.0621C19.703 32.3015 18.4659 30.8954 18.4658 28.8363V20.5943C18.4309 20.5034 18.4118 20.4047 18.4118 20.3015C18.4118 19.8505 18.7773 19.485 19.2283 19.485C19.6792 19.485 20.0448 19.8505 20.0448 20.3015C20.0448 20.4053 20.0254 20.5046 19.9901 20.5959V28.8363C19.9901 30.2349 20.8277 31.2493 21.6059 31.8719C22.0006 32.1877 22.6282 32.346 23.3087 32.3783C23.9857 32.4104 24.5469 32.3111 24.6924 32.2627C24.9538 32.1755 25.3322 31.9191 25.6925 31.5742C25.8638 31.4102 26.0117 31.2445 26.1215 31.0998C26.1763 31.0277 26.2177 30.9659 26.2468 30.9165C26.274 30.8703 26.2836 30.8464 26.285 30.8431C26.2851 30.8427 26.2852 30.8426 26.2851 30.8429C26.5152 30.1524 26.9649 29.6831 27.5725 29.5178C28.1235 29.3679 28.6649 29.5073 29.0638 29.7037L29.0635 29.7034C29.0636 29.7033 29.0657 29.7039 29.07 29.7052C29.0857 29.7098 29.1299 29.723 29.2092 29.7378C29.3263 29.7596 29.4869 29.7787 29.6781 29.7816C30.0618 29.7875 30.5424 29.728 31.0301 29.5189C31.5873 29.2801 31.9339 29.03 32.194 28.7665C32.463 28.494 32.6677 28.1804 32.9243 27.7527C33.0807 27.492 33.1615 27.0914 33.1615 26.6103C33.1616 26.1436 33.0858 25.6877 33.0114 25.3904C32.9332 25.0776 32.9008 24.7759 32.9424 24.4845C32.9859 24.1795 33.1039 23.932 33.2584 23.7259C33.4002 23.5367 33.5712 23.3864 33.6993 23.2758L33.7734 23.2121L33.7735 23.2121C33.8829 23.1183 33.9772 23.0374 34.0769 22.9378L34.0895 22.9251C34.6271 22.3876 35.6423 21.3727 36.1158 19.005C36.5649 16.7593 36.388 15.1381 35.7749 13.7585C35.1423 12.3353 34.1528 11.2631 33.3967 10.507C32.9156 10.0259 32.6059 9.58602 32.445 9.06424C32.297 8.58439 32.2972 8.09082 32.2974 7.60112L32.2974 7.57049C32.2978 6.57092 31.8651 5.55227 31.1375 4.8247C30.4625 4.14966 29.3372 3.90947 28.6325 4.14435C28.0591 4.33549 27.4927 4.40098 27.0314 4.10765C26.8046 3.96337 26.6763 3.77496 26.6019 3.63704C26.5662 3.57071 26.5394 3.50923 26.5235 3.4723L26.5044 3.42777L26.499 3.41591L26.4892 3.39636L26.4804 3.37578C26.4372 3.27498 26.2762 3.01363 26.0173 2.70944C25.7637 2.41158 25.4799 2.14822 25.2332 2.00017C24.5042 1.56277 23.0588 1.20681 21.8984 1.98071C20.9145 2.63688 19.9901 3.47532 19.9901 4.97736V15.467C20.0253 15.5583 20.0446 15.6575 20.0446 15.7612C20.0446 16.2121 19.6791 16.5777 19.2281 16.5777C18.7772 16.5777 18.4116 16.2121 18.4116 15.7612C18.4116 15.6578 18.4308 15.559 18.4658 15.468V4.97736C18.4658 2.67581 19.9626 1.43955 21.0527 0.712606Z" fill="#042D48"/>
<path d="M8.12474 12.8831C6.84228 12.8831 5.7273 13.6539 5.21493 14.8946C4.70575 16.1274 4.92873 17.5026 5.79651 18.4834C5.84027 18.5329 5.88501 18.5816 5.93066 18.6298C6.091 18.7987 6.30109 18.8831 6.51118 18.8831C6.72127 18.8831 6.93144 18.7987 7.09169 18.6298C7.41229 18.2921 7.41229 17.7446 7.09169 17.4068C7.05968 17.3732 7.0284 17.3391 6.99769 17.3044C6.57612 16.8279 6.47251 16.1849 6.72045 15.5844C6.97183 14.9757 7.49677 14.6124 8.12457 14.6124C8.578 14.6124 8.94556 14.2253 8.94556 13.7477C8.94572 13.2702 8.57817 12.8831 8.12474 12.8831Z" fill="#042D48"/>
<path d="M11.8626 10.8831C11.9224 10.8831 11.982 10.8821 12.0416 10.8802C13.2538 10.8409 14.2835 10.1681 14.7289 9.12442C15.1771 8.07449 14.9191 6.92738 14.0555 6.13078C13.6975 5.80048 13.1169 5.80048 12.7587 6.13078C12.4007 6.46108 12.4007 6.99665 12.7587 7.32703C13.1031 7.64464 13.2017 8.08498 13.0225 8.50468C12.8461 8.91803 12.4552 9.17407 11.9773 9.18954C11.9392 9.19081 11.9009 9.1914 11.8625 9.1914C11.3561 9.1914 10.9456 9.57008 10.9456 10.0372C10.9456 10.5044 11.3561 10.8831 11.8626 10.8831Z" fill="#042D48"/>
<path d="M12.7588 21.1308C12.4007 21.4611 12.4007 21.9967 12.7588 22.327C13.1032 22.6446 13.2018 23.0849 13.0226 23.5047C12.8462 23.918 12.4553 24.174 11.9765 24.1895C11.9387 24.1908 11.9006 24.1914 11.8625 24.1914C11.3561 24.1914 10.9456 24.5701 10.9456 25.0372C10.9456 25.5044 11.3561 25.8831 11.8625 25.8831C11.9226 25.8831 11.9825 25.8821 12.0416 25.8801C13.2536 25.8408 14.2834 25.1681 14.7289 24.1244C15.1771 23.0744 14.9191 21.9274 14.0555 21.1307C13.6974 20.8005 13.1168 20.8005 12.7588 21.1308Z" fill="#042D48"/>
<path d="M29.7664 12.8831C31.0488 12.8831 32.1638 13.6539 32.6762 14.8946C33.1854 16.1274 32.9624 17.5026 32.0946 18.4834C32.0508 18.5329 32.0061 18.5816 31.9605 18.6298C31.8001 18.7987 31.59 18.8831 31.3799 18.8831C31.1698 18.8831 30.9597 18.7987 30.7994 18.6298C30.4788 18.2921 30.4788 17.7446 30.7994 17.4068C30.8314 17.3732 30.8627 17.3391 30.8934 17.3044C31.315 16.8279 31.4186 16.1849 31.1707 15.5844C30.9193 14.9757 30.3943 14.6124 29.7665 14.6124C29.3131 14.6124 28.9456 14.2253 28.9456 13.7477C28.9454 13.2702 29.3129 12.8831 29.7664 12.8831Z" fill="#042D48"/>
<path d="M26.0286 10.8831C25.9687 10.8831 25.9091 10.8821 25.8495 10.8802C24.6373 10.8409 23.6076 10.1681 23.1622 9.12442C22.714 8.07449 22.972 6.92738 23.8356 6.13078C24.1936 5.80048 24.7742 5.80048 25.1324 6.13078C25.4904 6.46108 25.4904 6.99665 25.1324 7.32703C24.788 7.64464 24.6894 8.08498 24.8686 8.50468C25.045 8.91803 25.4359 9.17407 25.9139 9.18954C25.9519 9.19081 25.9902 9.1914 26.0286 9.1914C26.5351 9.1914 26.9456 9.57008 26.9456 10.0372C26.9455 10.5044 26.535 10.8831 26.0286 10.8831Z" fill="#042D48"/>
<path d="M25.1323 21.1308C25.4904 21.4611 25.4904 21.9967 25.1323 22.327C24.7879 22.6446 24.6894 23.0849 24.8685 23.5047C25.0449 23.918 25.4358 24.174 25.9147 24.1895C25.9524 24.1908 25.9905 24.1914 26.0286 24.1914C26.535 24.1914 26.9456 24.5701 26.9456 25.0372C26.9456 25.5044 26.535 25.8831 26.0286 25.8831C25.9685 25.8831 25.9086 25.8821 25.8496 25.8801C24.6375 25.8408 23.6077 25.1681 23.1622 24.1244C22.714 23.0744 22.972 21.9274 23.8356 21.1307C24.1937 20.8005 24.7743 20.8005 25.1323 21.1308Z" fill="#042D48"/>
</svg>
