<svg width="59" height="59" viewBox="0 0 59 59" fill="none" xmlns="http://www.w3.org/2000/svg">
<path d="M29.4371 11.3166C28.6504 10.7266 22.9471 6.20331 17.0471 6.20331C11.9338 6.20331 8.39375 9.93997 7.80376 10.53C2.29709 16.43 2.88709 22.7233 4.46042 26.0666C6.03376 29.41 7.01709 32.1633 22.3571 46.3233C25.3071 49.0766 27.6671 51.24 29.4371 52.8133H29.6338C31.4038 51.24 33.7638 48.88 36.7138 46.3233C52.0538 31.9666 53.0371 29.41 54.6104 26.0666C56.1838 22.7233 56.7738 16.43 51.2671 10.53C50.8738 10.1366 47.5304 6.79331 42.4171 6.20331C42.4171 6.20331 42.2204 6.20331 42.0238 6.20331C36.5171 5.80997 30.2238 10.7266 29.4371 11.3166Z" fill="url(#paint0_linear)"/>
<path d="M29 12C28.2133 11.41 22.5756 6.09666 16.6756 6.09666C11.5623 6.09666 8.0223 9.83332 7.4323 10.4233C1.92563 16.3233 2.51563 22.6167 4.08896 25.96C5.6623 29.3033 6.64563 32.0567 21.9856 46.2167C24.9356 48.97 27.2956 51.1333 29.0656 52.7067C30.8356 51.1333 33.3923 48.7733 36.3423 46.2167C51.6823 31.86 52.6656 29.3033 54.239 25.96C55.8123 22.6167 56.4023 16.3233 50.8956 10.4233C50.5023 10.03 47.159 6.68666 42.0456 6.09666C42.0456 6.09666 41.849 6.09666 41.6523 6.09666C36.1456 5.70332 29.7866 11.41 29 12Z" stroke="#BA5365" stroke-width="2" stroke-miterlimit="10" stroke-linecap="round" stroke-linejoin="round"/>
<path d="M9 33.6968C9.93568 33.9268 13.2171 34.2463 14.34 33.6943C15.4628 33.1422 17.147 32.0842 17.8488 31.6241C18.3166 31.3941 19.3926 31.2101 19.954 32.3142C20.6558 33.6943 20.9296 33.6943 21.6313 33.6943C22.3331 33.6943 22.7611 31.6238 23.4628 29.5537C24.0243 27.8976 25.1401 24.0332 25.8419 21.9634C26.3099 20.5828 26.8437 20.7786 27.2454 21.9634C27.8069 23.6195 29.0769 30.0141 29.7787 33.0043C30.0126 33.9244 31.1822 34.3842 31.884 33.0043C32.3739 32.041 33.5599 29.5537 35.3928 30.6609C36.4196 31.2812 37.4981 33.6943 40.3051 33.6943C42.5507 33.6943 47.5965 33.6967 49 33.6967" stroke="#BA5365" stroke-width="1.6" stroke-linecap="round" stroke-linejoin="round"/>
<defs>
<linearGradient id="paint0_linear" x1="25.8476" y1="23.8809" x2="15.4524" y2="11.2381" gradientUnits="userSpaceOnUse">
<stop stop-color="#F6A3AD"/>
<stop offset="1" stop-color="#FFB4BD"/>
</linearGradient>
</defs>
</svg>
