<svg width="43" height="46" viewBox="0 0 43 46" fill="none" xmlns="http://www.w3.org/2000/svg">
<g filter="url(#filter0_i)">
<path d="M21.6917 43.9399C33.1193 43.9399 42.383 34.2281 42.383 22.2479C42.383 10.2677 33.1193 0.555908 21.6917 0.555908C10.2642 0.555908 1.00043 10.2677 1.00043 22.2479C1.00043 34.2281 10.2642 43.9399 21.6917 43.9399Z" fill="#F3F8FF"/>
</g>
<g filter="url(#filter1_d)">
<path fill-rule="evenodd" clip-rule="evenodd" d="M9.72712 20.6528C5.82425 19.9496 2.32213 22.6657 0.999908 23.3775C1.05906 24.1845 1.3745 27.0818 1.84765 28.5512C2.66732 31.0967 5.11632 36.525 9.4898 39.9058C13.8633 43.2867 20.5421 44.7817 26.2378 43.4647C31.9333 42.148 36.0357 38.0909 38.3071 35.137C40.1243 32.7741 41.2983 29.2151 41.6713 27.7442C41.6515 27.5785 40.7715 23.2816 39.2564 19.158C37.4256 14.1757 34.9508 11.8625 34.1371 11.2219C32.7042 10.0938 31.7299 9.83392 30.713 9.9407C30.2948 10.0237 29.2484 10.4389 28.4076 11.4354C27.3565 12.681 26.8819 13.5707 24.6104 16.9159C23.6611 18.3141 19.5928 20.3324 18.6435 20.6528C17.5863 21.0094 14.2701 21.4712 9.72712 20.6528Z" fill="#A8DBFF" fill-opacity="0.5"/>
<path fill-rule="evenodd" clip-rule="evenodd" d="M9.72712 20.6528C5.82425 19.9496 2.32213 22.6657 0.999908 23.3775C1.05906 24.1845 1.3745 27.0818 1.84765 28.5512C2.66732 31.0967 5.11632 36.525 9.4898 39.9058C13.8633 43.2867 20.5421 44.7817 26.2378 43.4647C31.9333 42.148 36.0357 38.0909 38.3071 35.137C40.1243 32.7741 41.2983 29.2151 41.6713 27.7442C41.6515 27.5785 40.7715 23.2816 39.2564 19.158C37.4256 14.1757 34.9508 11.8625 34.1371 11.2219C32.7042 10.0938 31.7299 9.83392 30.713 9.9407C30.2948 10.0237 29.2484 10.4389 28.4076 11.4354C27.3565 12.681 26.8819 13.5707 24.6104 16.9159C23.6611 18.3141 19.5928 20.3324 18.6435 20.6528C17.5863 21.0094 14.2701 21.4712 9.72712 20.6528Z" fill="url(#paint0_linear)"/>
</g>
<g filter="url(#filter2_i)">
<path fill-rule="evenodd" clip-rule="evenodd" d="M5.95402 25.2397C4.81636 24.87 2.19566 23.6107 1.04443 23.0183L1.10351 24.0313L1.17987 25.0619C1.38303 26.6973 1.7074 27.5129 1.96983 28.7448C2.30456 30.3161 4.22722 34.0565 5.64932 36.012C6.90455 37.7378 8.95958 39.4972 11.0466 40.9216C12.8384 42.1447 18.4951 44.0913 22.3877 43.9813C26.0499 43.878 29.8587 42.5892 34.1927 39.4961C38.5267 36.4029 40.5019 31.4532 41.1321 29.6338C41.7176 27.9434 42.2346 25.251 42.2937 23.9486L36.3258 21.3645L33.8541 20.3335C31.1114 19.2315 28.8294 18.3925 27.4208 18.0227C25.6601 17.5605 23.6962 17.4894 22.4773 17.6316C21.5021 17.7453 20.1749 18.5559 19.6333 18.9469C19.2382 19.2907 18.2178 20.234 17.2969 21.2579C16.1456 22.5378 14.622 23.9953 12.5227 25.0264C10.4235 26.0574 7.37611 25.7018 5.95402 25.2397Z" fill="#56A4D2" fill-opacity="0.5"/>
<path fill-rule="evenodd" clip-rule="evenodd" d="M5.95402 25.2397C4.81636 24.87 2.19566 23.6107 1.04443 23.0183L1.10351 24.0313L1.17987 25.0619C1.38303 26.6973 1.7074 27.5129 1.96983 28.7448C2.30456 30.3161 4.22722 34.0565 5.64932 36.012C6.90455 37.7378 8.95958 39.4972 11.0466 40.9216C12.8384 42.1447 18.4951 44.0913 22.3877 43.9813C26.0499 43.878 29.8587 42.5892 34.1927 39.4961C38.5267 36.4029 40.5019 31.4532 41.1321 29.6338C41.7176 27.9434 42.2346 25.251 42.2937 23.9486L36.3258 21.3645L33.8541 20.3335C31.1114 19.2315 28.8294 18.3925 27.4208 18.0227C25.6601 17.5605 23.6962 17.4894 22.4773 17.6316C21.5021 17.7453 20.1749 18.5559 19.6333 18.9469C19.2382 19.2907 18.2178 20.234 17.2969 21.2579C16.1456 22.5378 14.622 23.9953 12.5227 25.0264C10.4235 26.0574 7.37611 25.7018 5.95402 25.2397Z" fill="url(#paint1_linear)" fill-opacity="0.7"/>
</g>
<g filter="url(#filter3_d)">
<path fill-rule="evenodd" clip-rule="evenodd" d="M8.95487 25.0526C4.72214 24.7408 2.03601 25.1825 1.22202 25.4423C1.31246 25.9739 1.54505 27.3579 1.92574 28.6672C2.39908 30.2949 3.75559 33.3478 4.91887 34.8676C6.08211 36.3873 6.50773 37.3875 9.71607 39.8761C13.6211 42.905 18.9856 43.9999 23.6401 43.7704C27.2352 43.5931 31.2716 41.4581 32.7978 40.4306C34.3241 39.4031 37.2837 37.0625 39.556 33.2001C41.8832 29.2447 42.2836 24.7295 42.3368 23.9487C42.3763 23.3718 42.4157 21.4556 42.3368 20.5902C41.8733 20.5784 40.6036 20.5309 39.174 20.7653C37.4442 21.0487 36.2912 21.8991 35.4094 22.4659C34.5276 23.0329 32.9674 24.025 30.1185 25.4423C27.2695 26.8597 22.8604 26.7888 19.8419 26.5408C16.8235 26.2927 14.2457 25.4423 8.95487 25.0526Z" fill="#1670A4" fill-opacity="0.5"/>
<path fill-rule="evenodd" clip-rule="evenodd" d="M8.95487 25.0526C4.72214 24.7408 2.03601 25.1825 1.22202 25.4423C1.31246 25.9739 1.54505 27.3579 1.92574 28.6672C2.39908 30.2949 3.75559 33.3478 4.91887 34.8676C6.08211 36.3873 6.50773 37.3875 9.71607 39.8761C13.6211 42.905 18.9856 43.9999 23.6401 43.7704C27.2352 43.5931 31.2716 41.4581 32.7978 40.4306C34.3241 39.4031 37.2837 37.0625 39.556 33.2001C41.8832 29.2447 42.2836 24.7295 42.3368 23.9487C42.3763 23.3718 42.4157 21.4556 42.3368 20.5902C41.8733 20.5784 40.6036 20.5309 39.174 20.7653C37.4442 21.0487 36.2912 21.8991 35.4094 22.4659C34.5276 23.0329 32.9674 24.025 30.1185 25.4423C27.2695 26.8597 22.8604 26.7888 19.8419 26.5408C16.8235 26.2927 14.2457 25.4423 8.95487 25.0526Z" fill="url(#paint2_linear)" fill-opacity="0.4"/>
</g>
<g filter="url(#filter4_di)">
<path fill-rule="evenodd" clip-rule="evenodd" d="M7.93591 23.1926C5.67471 24.0762 2.57592 25.3593 1.35556 26.2142C1.61546 27.2 1.92723 29.1375 2.69601 30.8342C3.43816 32.4723 5.25865 36.7389 9.63088 39.9376C13.6651 42.8891 19.5773 44.382 24.025 43.8242C28.7431 43.2325 32.1073 41.2552 35.0642 38.8106C37.4297 36.8548 39.263 33.7969 40.0712 32.2224C38.7039 32.1037 35.3604 31.6576 32.7841 30.8881C29.5637 29.9262 26.7499 28.038 25.1229 27.0404C23.4956 26.0429 20.1736 23.8339 17.0548 22.9431C13.9361 22.0525 10.58 22.1593 7.93591 23.1926Z" fill="#002F5C" fill-opacity="0.6"/>
<path fill-rule="evenodd" clip-rule="evenodd" d="M7.93591 23.1926C5.67471 24.0762 2.57592 25.3593 1.35556 26.2142C1.61546 27.2 1.92723 29.1375 2.69601 30.8342C3.43816 32.4723 5.25865 36.7389 9.63088 39.9376C13.6651 42.8891 19.5773 44.382 24.025 43.8242C28.7431 43.2325 32.1073 41.2552 35.0642 38.8106C37.4297 36.8548 39.263 33.7969 40.0712 32.2224C38.7039 32.1037 35.3604 31.6576 32.7841 30.8881C29.5637 29.9262 26.7499 28.038 25.1229 27.0404C23.4956 26.0429 20.1736 23.8339 17.0548 22.9431C13.9361 22.0525 10.58 22.1593 7.93591 23.1926Z" fill="url(#paint3_linear)"/>
</g>
<defs>
<filter id="filter0_i" x="1.00043" y="0.555908" width="41.5604" height="43.5618" filterUnits="userSpaceOnUse" color-interpolation-filters="sRGB">
<feFlood flood-opacity="0" result="BackgroundImageFix"/>
<feBlend mode="normal" in="SourceGraphic" in2="BackgroundImageFix" result="shape"/>
<feColorMatrix in="SourceAlpha" type="matrix" values="0 0 0 0 0 0 0 0 0 0 0 0 0 0 0 0 0 0 127 0" result="hardAlpha"/>
<feOffset dx="0.177799" dy="0.177799"/>
<feGaussianBlur stdDeviation="0.0888993"/>
<feComposite in2="hardAlpha" operator="arithmetic" k2="-1" k3="1"/>
<feColorMatrix type="matrix" values="0 0 0 0 0.852222 0 0 0 0 0.858241 0 0 0 0 0.866667 0 0 0 1 0"/>
<feBlend mode="normal" in2="shape" result="effect1_innerShadow"/>
</filter>
<filter id="filter1_d" x="0.0664662" y="8.98529" width="42.8939" height="36.2437" filterUnits="userSpaceOnUse" color-interpolation-filters="sRGB">
<feFlood flood-opacity="0" result="BackgroundImageFix"/>
<feColorMatrix in="SourceAlpha" type="matrix" values="0 0 0 0 0 0 0 0 0 0 0 0 0 0 0 0 0 0 127 0"/>
<feOffset dx="0.177799" dy="0.177799"/>
<feGaussianBlur stdDeviation="0.55562"/>
<feColorMatrix type="matrix" values="0 0 0 0 0.8125 0 0 0 0 0.8125 0 0 0 0 0.8125 0 0 0 0.5 0"/>
<feBlend mode="normal" in2="BackgroundImageFix" result="effect1_dropShadow"/>
<feBlend mode="normal" in="SourceGraphic" in2="effect1_dropShadow" result="shape"/>
</filter>
<filter id="filter2_i" x="1.04443" y="17.566" width="41.2937" height="26.4642" filterUnits="userSpaceOnUse" color-interpolation-filters="sRGB">
<feFlood flood-opacity="0" result="BackgroundImageFix"/>
<feBlend mode="normal" in="SourceGraphic" in2="BackgroundImageFix" result="shape"/>
<feColorMatrix in="SourceAlpha" type="matrix" values="0 0 0 0 0 0 0 0 0 0 0 0 0 0 0 0 0 0 127 0" result="hardAlpha"/>
<feOffset dx="0.0444496" dy="0.0444496"/>
<feGaussianBlur stdDeviation="0.0444496"/>
<feComposite in2="hardAlpha" operator="arithmetic" k2="-1" k3="1"/>
<feColorMatrix type="matrix" values="0 0 0 0 0.556233 0 0 0 0 0.725021 0 0 0 0 0.829167 0 0 0 1 0"/>
<feBlend mode="normal" in2="shape" result="effect1_innerShadow"/>
</filter>
<filter id="filter3_d" x="1.22202" y="20.5782" width="41.516" height="23.5772" filterUnits="userSpaceOnUse" color-interpolation-filters="sRGB">
<feFlood flood-opacity="0" result="BackgroundImageFix"/>
<feColorMatrix in="SourceAlpha" type="matrix" values="0 0 0 0 0 0 0 0 0 0 0 0 0 0 0 0 0 0 127 0"/>
<feOffset dx="0.177799" dy="0.177799"/>
<feGaussianBlur stdDeviation="0.0888993"/>
<feColorMatrix type="matrix" values="0 0 0 0 0 0 0 0 0 0 0 0 0 0 0 0 0 0 0.25 0"/>
<feBlend mode="normal" in2="BackgroundImageFix" result="effect1_dropShadow"/>
<feBlend mode="normal" in="SourceGraphic" in2="effect1_dropShadow" result="shape"/>
</filter>
<filter id="filter4_di" x="1.26666" y="22.2513" width="38.9823" height="21.866" filterUnits="userSpaceOnUse" color-interpolation-filters="sRGB">
<feFlood flood-opacity="0" result="BackgroundImageFix"/>
<feColorMatrix in="SourceAlpha" type="matrix" values="0 0 0 0 0 0 0 0 0 0 0 0 0 0 0 0 0 0 127 0"/>
<feOffset dx="0.0888993" dy="0.0888993"/>
<feGaussianBlur stdDeviation="0.0444496"/>
<feColorMatrix type="matrix" values="0 0 0 0 0 0 0 0 0 0.133843 0 0 0 0 0.245833 0 0 0 0.5 0"/>
<feBlend mode="normal" in2="BackgroundImageFix" result="effect1_dropShadow"/>
<feBlend mode="normal" in="SourceGraphic" in2="effect1_dropShadow" result="shape"/>
<feColorMatrix in="SourceAlpha" type="matrix" values="0 0 0 0 0 0 0 0 0 0 0 0 0 0 0 0 0 0 127 0" result="hardAlpha"/>
<feOffset dx="-0.0888993" dy="-0.0888993"/>
<feGaussianBlur stdDeviation="0.666744"/>
<feComposite in2="hardAlpha" operator="arithmetic" k2="-1" k3="1"/>
<feColorMatrix type="matrix" values="0 0 0 0 0 0 0 0 0 0 0 0 0 0 0 0 0 0 0.4 0"/>
<feBlend mode="normal" in2="shape" result="effect2_innerShadow"/>
</filter>
<linearGradient id="paint0_linear" x1="23.3358" y1="12.6534" x2="61.4506" y2="22.2948" gradientUnits="userSpaceOnUse">
<stop stop-color="#D5EEFF"/>
<stop offset="1" stop-color="#6DBFFA"/>
</linearGradient>
<linearGradient id="paint1_linear" x1="27.692" y1="26.5811" x2="16.7124" y2="15.4063" gradientUnits="userSpaceOnUse">
<stop stop-color="#599AC1"/>
<stop offset="1" stop-color="#EEF8FF" stop-opacity="0"/>
</linearGradient>
<linearGradient id="paint2_linear" x1="40.3377" y1="22.8262" x2="6.34764" y2="48.648" gradientUnits="userSpaceOnUse">
<stop stop-color="#3184B5"/>
<stop offset="1" stop-color="white" stop-opacity="0"/>
</linearGradient>
<linearGradient id="paint3_linear" x1="18.4464" y1="46.5583" x2="10.1644" y2="23.9477" gradientUnits="userSpaceOnUse">
<stop stop-color="#002134"/>
<stop offset="1" stop-color="#00395A" stop-opacity="0"/>
</linearGradient>
</defs>
</svg>
