<svg width="54" height="55" viewBox="0 0 54 55" fill="none" xmlns="http://www.w3.org/2000/svg">
<g clip-path="url(#clip0)" filter="url(#filter0_d)">
<path d="M26.9166 20.9445L26.5555 24.5556L27.6388 24.9167L32.3333 26.7222L34.8611 24.9167L37.75 24.5556L39.9166 24.9167L43.8888 26.3611L46.0555 26L48.2222 25.2778V23.1111L47.8611 16.6111L46.7777 12.6389L45.3333 9.3889L42.8055 6.86112L40.2777 5.05557L35.5833 3.61112L31.9722 4.33334L28.3611 6.50001L27.6388 3.25001L26.5555 1.08334H22.2222L20.4166 1.80557L21.5 6.50001L24.0277 12.6389L25.8333 16.25L26.9166 20.9445Z" fill="url(#paint0_linear)"/>
<path d="M24.3889 28.5278L26.1945 25.2778L26.5556 24.1945L31.9723 26.7222L38.1111 24.1945L43.8889 26.7222L48.2223 25.2778L47.5 28.5278L46.0556 34.6667L43.5278 39L39.9167 42.6111L33.4167 45.5L26.5556 46.2222L22.9445 45.5L19.6945 43.3333L16.8056 39L14.6389 36.8333L12.8334 36.1111H10.3056L5.97226 37.9167L3.80559 39L2.72226 37.9167V33.9445L5.97226 31.4167L10.3056 29.9722H14.6389L18.9723 31.4167L21.1389 30.6945L24.3889 28.5278Z" fill="url(#paint1_linear)"/>
<path d="M48.9442 21.9078C48.9442 4.48345 38.7634 3.12945 35.6433 3.12945C33.1589 3.17951 30.7616 4.05379 28.8283 5.61502C28.3989 4.21828 28.0928 2.85053 27.9313 2.06501C27.7543 1.19834 27.1038 0.505612 26.2499 0.274733C24.8284 -0.0582896 23.3525 -0.0877225 21.9188 0.18836C20.7473 0.434093 19.9443 1.51669 20.0491 2.70914C20.4037 6.6007 22.4827 11.1234 24.164 14.2324C24.8443 15.4771 25.3896 16.7908 25.7903 18.1515C26.0862 19.1156 26.2426 20.117 26.2544 21.1253C26.2534 22.1336 26.1126 23.1368 25.8364 24.1064C25.8314 24.1204 25.8208 24.1306 25.8166 24.145C25.396 25.6169 24.6603 26.9797 23.6605 28.139C23.6185 28.1867 23.5776 28.2364 23.5347 28.2828C23.4519 28.3736 23.3663 28.4593 23.281 28.5455C23.1776 28.6489 23.0735 28.7505 22.9671 28.8466C22.9159 28.8932 22.8648 28.9398 22.8129 28.9848C22.2923 29.4406 21.7066 29.8162 21.0752 30.0994L21.0657 30.1034C20.8804 30.1831 20.6907 30.2523 20.4976 30.3107C20.4682 30.3196 20.4386 30.3288 20.409 30.3372C20.2461 30.3831 20.0809 30.4201 19.9139 30.448C19.8743 30.4546 19.8346 30.4642 19.795 30.4697C19.6023 30.4984 19.4076 30.5134 19.2128 30.5145C18.3092 30.5144 17.4184 30.3 16.6138 29.8887C15.2275 29.2303 13.7053 28.9086 12.1711 28.9496C8.55451 28.9095 5.07762 30.3448 2.54236 32.9244C2.19266 33.3471 2.00094 33.8781 1.99984 34.4266V37.5563C1.99296 38.3429 2.40043 39.0751 3.07241 39.484C3.14447 39.5294 3.21901 39.5708 3.29567 39.6079C4.14946 40.0042 5.15638 39.8625 5.86751 39.2457C6.58258 38.6641 7.36725 38.1737 8.20344 37.7859C9.43756 37.1665 10.7911 36.8212 12.171 36.7739C14.8441 36.7739 15.7412 38.3877 16.9824 40.6219C18.5483 43.4391 20.497 46.9455 27.0367 46.9455C27.4619 46.9455 27.8811 46.9378 28.2944 46.9223C40.3045 46.5026 47.1216 39.9887 48.6233 27.5284C48.6342 27.44 48.6421 27.3487 48.6525 27.2598C48.6894 26.9348 48.7264 26.61 48.7563 26.277C48.7893 25.9138 48.8153 25.5435 48.8393 25.171C48.8449 25.0835 48.8532 24.9987 48.8584 24.9107L48.8608 24.8784L48.8601 24.8703C48.9157 23.9136 48.9436 22.926 48.9442 21.9078ZM47.1248 26.7756C47.0797 27.1978 47.0265 27.6108 46.9686 28.0186C46.9074 28.4453 46.8394 28.8643 46.7644 29.2754C46.7119 29.5656 46.656 29.8521 46.5969 30.1349C46.4897 30.6414 46.3711 31.1349 46.2409 31.6154C46.1856 31.822 46.1313 32.0299 46.0719 32.232C45.9738 32.5649 45.8714 32.893 45.7623 33.2134C45.7393 33.2809 45.7132 33.3449 45.6897 33.4119C45.4799 34.01 45.2508 34.5864 45.0027 35.1408C44.941 35.2779 44.8756 35.4107 44.8116 35.545C44.5913 36.0073 44.3571 36.4537 44.1091 36.8844C44.0246 37.0302 43.9381 37.1735 43.8504 37.3156C43.6131 37.7005 43.3637 38.0714 43.1022 38.4282C42.9856 38.5875 42.8681 38.7459 42.7467 38.8998C42.5312 39.1736 42.3079 39.4385 42.0769 39.6944C41.8892 39.9027 41.6986 40.1077 41.501 40.3047C41.3322 40.4733 41.1607 40.6388 40.9846 40.7991C40.7032 41.0545 40.413 41.2997 40.1139 41.5347C39.9503 41.6628 39.7814 41.7851 39.6122 41.9069C39.2795 42.1457 38.941 42.3777 38.587 42.5919C38.4439 42.6787 38.2944 42.7578 38.1479 42.8406C37.808 43.032 37.4605 43.2147 37.1019 43.3845C36.9565 43.4535 36.8105 43.5219 36.6621 43.5874C36.2506 43.7683 35.8271 43.9352 35.3915 44.088C35.2704 44.1308 35.1517 44.1763 35.0289 44.217C34.5409 44.3782 34.0362 44.5201 33.5195 44.6476C33.3949 44.6785 33.2703 44.7094 33.1439 44.7384C32.6104 44.8602 32.0623 44.9647 31.4996 45.0521C31.3851 45.0698 31.2688 45.0855 31.153 45.1018C30.5628 45.1845 29.9599 45.252 29.3378 45.2971C29.2552 45.3031 29.1702 45.3062 29.0872 45.3115C28.4202 45.3542 27.7398 45.3808 27.0368 45.3808C21.4179 45.3808 19.8583 42.5751 18.3505 39.8617C17.0791 37.574 15.7649 35.2091 12.1711 35.2091C10.1214 35.2847 8.12743 35.8976 6.38921 36.9866C5.85266 37.3006 5.34122 37.6556 4.8594 38.0484C4.73801 38.1517 4.59057 38.2195 4.43324 38.2446C4.32899 38.2632 4.22217 38.2617 4.11856 38.2402C4.06273 38.2291 4.00817 38.2118 3.95591 38.1891C3.70771 38.0789 3.55248 37.8277 3.56468 37.5564V34.4268C3.56459 34.2423 3.6295 34.0638 3.74805 33.9225C5.97515 31.6879 9.01671 30.4573 12.1711 30.5146C13.4914 30.4765 14.8016 30.7545 15.9926 31.3254C16.9936 31.8211 18.0956 32.0792 19.2128 32.0795C19.4585 32.0776 19.7038 32.0601 19.9472 32.027C20.0377 32.0157 20.1273 31.9997 20.2172 31.9842C20.3645 31.9585 20.5112 31.9273 20.6571 31.8905C20.7688 31.863 20.8804 31.8368 20.991 31.8032C21.0894 31.7728 21.1866 31.7346 21.2845 31.6995C21.5595 31.6018 21.8283 31.4873 22.0894 31.3566C22.1349 31.3338 22.1808 31.3127 22.2261 31.2889C22.3938 31.2008 22.5585 31.1057 22.7218 31.0042C22.7519 30.9855 22.7815 30.9657 22.8115 30.9465C23.3323 30.6113 23.8176 30.2239 24.2599 29.7903C24.3008 29.7506 24.3421 29.7118 24.3825 29.6712C24.513 29.5398 24.6406 29.4041 24.7653 29.2644C24.8271 29.1953 24.8871 29.1235 24.9475 29.0522C25.06 28.9193 25.1728 28.7876 25.28 28.6479C25.4309 28.4519 25.5765 28.2493 25.717 28.0401C25.7912 27.9292 25.8599 27.8132 25.9308 27.6991C26.017 27.5607 26.1019 27.4215 26.1832 27.2782C26.2503 27.1596 26.3151 27.0398 26.3786 26.9183C26.4573 26.7679 26.5321 26.6144 26.6053 26.4594C26.6618 26.3397 26.7197 26.2216 26.7727 26.0996C26.8687 25.8778 26.9579 25.651 27.0422 25.421C27.0544 25.3878 27.0692 25.3562 27.0811 25.3229C27.6353 25.5552 28.1606 25.8514 28.6463 26.2052C29.5212 26.9196 30.6029 27.3332 31.7312 27.385C32.8595 27.3333 33.9411 26.9193 34.8157 26.2045C36.6464 24.6488 39.3345 24.6488 41.1651 26.2045C42.0396 26.9193 43.1213 27.3333 44.2497 27.385C45.3136 27.3468 46.338 26.9713 47.1745 26.3129C47.1596 26.4687 47.1416 26.6215 47.1248 26.7756ZM47.3151 24.3696C47.0162 24.5451 46.7327 24.7254 46.4651 24.9046C45.8424 25.4368 45.0665 25.7574 44.2498 25.8199C43.4342 25.7573 42.6597 25.437 42.0382 24.9053C39.6778 22.9951 36.3033 22.9951 33.9429 24.9053C33.3213 25.437 32.5468 25.7573 31.7313 25.8199C30.9155 25.7573 30.1408 25.4373 29.5186 24.906C28.8987 24.4574 28.2231 24.0913 27.5089 23.8168C27.7109 22.9339 27.815 22.0312 27.8193 21.1253C27.808 19.9704 27.6312 18.823 27.294 17.7183C26.8623 16.2496 26.2745 14.8316 25.5405 13.4883C23.9287 10.5083 21.9379 6.19423 21.6078 2.56711C21.5742 2.16431 21.8474 1.80011 22.2435 1.7197C23.4316 1.49157 24.6542 1.51312 25.8335 1.78315C26.1193 1.85953 26.3378 2.09031 26.3985 2.37987C26.7312 4.03059 27.1733 5.65738 27.7219 7.24942C27.8123 7.50047 28.0243 7.68816 28.2845 7.74757C28.5446 7.80699 28.8171 7.72979 29.0074 7.54283C30.773 5.77841 33.1481 4.7588 35.6433 4.69425C42.9921 4.69425 47.3794 11.1294 47.3794 21.9077C47.3794 22.7525 47.3553 23.5702 47.3151 24.3696Z" fill="#AA6315"/>
<path d="M27.0366 32.8291C27.8829 32.8291 28.569 32.143 28.569 31.2967C28.569 30.4504 27.8829 29.7643 27.0366 29.7643C26.1903 29.7643 25.5042 30.4504 25.5042 31.2967C25.5042 32.143 26.1902 32.8291 27.0366 32.8291Z" stroke="#AA6315" stroke-width="1.5"/>
<path d="M40.3376 32.8291C41.184 32.8291 41.87 32.143 41.87 31.2967C41.87 30.4504 41.184 29.7643 40.3376 29.7643C39.4913 29.7643 38.8053 30.4504 38.8053 31.2967C38.8053 32.143 39.4913 32.8291 40.3376 32.8291Z" stroke="#AA6315" stroke-width="1.5"/>
<path d="M32.7741 38.1764C33.6205 38.1764 34.3065 37.4903 34.3065 36.644C34.3065 35.7977 33.6205 35.1116 32.7741 35.1116C31.9278 35.1116 31.2418 35.7977 31.2418 36.644C31.2418 37.4903 31.9278 38.1764 32.7741 38.1764Z" stroke="#AA6315" stroke-width="1.5"/>
<path d="M26.2544 41.4366C27.1007 41.4366 27.7868 40.7505 27.7868 39.9042C27.7868 39.0579 27.1007 38.3718 26.2544 38.3718C25.4081 38.3718 24.722 39.0579 24.722 39.9042C24.722 40.7505 25.4081 41.4366 26.2544 41.4366Z" stroke="#AA6315" stroke-width="1.5"/>
</g>
<defs>
<filter id="filter0_d" x="-2" y="0" width="60" height="60" filterUnits="userSpaceOnUse" color-interpolation-filters="sRGB">
<feFlood flood-opacity="0" result="BackgroundImageFix"/>
<feColorMatrix in="SourceAlpha" type="matrix" values="0 0 0 0 0 0 0 0 0 0 0 0 0 0 0 0 0 0 127 0"/>
<feOffset dy="4"/>
<feGaussianBlur stdDeviation="2"/>
<feColorMatrix type="matrix" values="0 0 0 0 0 0 0 0 0 0 0 0 0 0 0 0 0 0 0.25 0"/>
<feBlend mode="normal" in2="BackgroundImageFix" result="effect1_dropShadow"/>
<feBlend mode="normal" in="SourceGraphic" in2="effect1_dropShadow" result="shape"/>
</filter>
<linearGradient id="paint0_linear" x1="34.5" y1="18.4167" x2="24.3889" y2="1.80557" gradientUnits="userSpaceOnUse">
<stop stop-color="#EC912B"/>
<stop offset="1" stop-color="#F0B573"/>
</linearGradient>
<linearGradient id="paint1_linear" x1="30.8889" y1="43.3333" x2="27.6389" y2="26.7222" gradientUnits="userSpaceOnUse">
<stop stop-color="#EC912B"/>
<stop offset="1" stop-color="#EDA351"/>
</linearGradient>
<clipPath id="clip0">
<rect width="52" height="52" fill="white" transform="translate(2)"/>
</clipPath>
</defs>
</svg>
