<svg width="30" height="30" viewBox="0 0 30 30" fill="none" xmlns="http://www.w3.org/2000/svg">
<path fill-rule="evenodd" clip-rule="evenodd" d="M8.22521 24.3575C7.14446 23.2768 6.09943 24.1275 6.09943 24.7883V24.793V24.7978V24.8025V24.8073V24.8122V24.817V24.8219V24.8269V24.8318V24.8368V24.8418V24.8469V24.8519V24.857V24.8622V24.8674V24.8726V24.8778V24.8831V24.8883V24.8937V24.899V24.9044V24.9098V24.9152V24.9207V24.9262V24.9317V24.9373V24.9429V24.9485V24.9541V24.9598V24.9655V24.9712V24.9769V24.9827V24.9885V24.9944V25.0002V25.0061V25.012V25.018V25.024V25.03V25.036V25.042V25.0481V25.0542V25.0603V25.0665V25.0727V25.0789V25.0851V25.0914V25.0977V25.104V25.1103V25.1167V25.1231V25.1295V25.1359V25.1424V25.1489V25.1554V25.1619V25.1685V25.1751V25.1817V25.1883V25.195V25.2017V25.2084V25.2151V25.2218V25.2286V25.2354V25.2422V25.2491V25.256V25.2628V25.2698V25.2767V25.2837V25.2906V25.2976V25.3047V25.3117V25.3188V25.3259V25.333V25.3401V25.3473V25.3544V25.3616V25.3689V25.3761V25.3834V25.3906V25.3979V25.4053V25.4126V25.42V25.4273V25.4347V25.4422V25.4496V25.4571V25.4645V25.472V25.4796V25.4871V25.4947V25.5022V25.5098V25.5174V25.5251V25.5327V25.5404V25.5481V25.5558V25.5635V25.5712V25.579V25.5868V25.5946V25.6024V25.6102V25.6181V25.6259V25.6338V25.6417V25.6496V25.6575V25.6655V25.6734V25.6814V25.6894V25.6974V25.7055V25.7135V25.7216V25.7296V25.7377V25.7458V25.7539V25.7621V25.7702V25.7784V25.7866V25.7948V25.803V25.8112V25.8194V25.8277V25.8359V25.8442V25.8525V25.8608V25.8691V25.8775V25.8858V25.8942V25.9026V25.9109V25.9193V25.9278V25.9362V25.9446V25.9531V25.9615V25.97V25.9785V25.987V25.9955V26.004V26.0125V26.0211V26.0296V26.0382V26.0468V26.0554V26.064V26.0726V26.0812V26.0898V26.0985V26.1071V26.1158V26.1245V26.1332V26.1419V26.1506V26.1593V26.168V26.1767V26.1855V26.1942V26.203V26.2117V26.2205V26.2293V26.2381V26.2469V26.2557V26.2645V26.2733V26.2822V26.291V26.2999V26.3087V26.3176V26.3265V26.3353V26.3442V26.3531V26.362V26.3709V26.3798V26.3888V26.3977V26.4066V26.4156V26.4245V26.4335V26.4424V26.4514V26.4604V26.4693V26.4783V26.4873V26.4963V26.5053V26.5143V26.5233V26.5323V26.5413V26.5503V26.5594V26.5684V26.5774V26.5865V26.5955V26.6046V26.6136V26.6227V26.6317V26.6408V26.6498V26.6589V26.668V26.677V26.6861V26.6952V26.7043V26.7133V26.7224V26.7315V26.7406V26.7497V26.7588V26.7679V26.777V26.7861V26.7952V26.8043V26.8134V26.8225V26.8316V26.8407V26.8498V26.8589V26.868V26.8771V26.8862V26.8953V26.9044V26.9135V26.9226V26.9317V26.9408V26.9499V26.959V26.9681V26.9772V26.9863V26.9954V27.0045V27.0136V27.0227V27.0318V27.0409V27.05V27.059V27.0681V27.0772V27.0863V27.0954V27.1044V27.1135V27.1226V27.1316V27.1407V27.1498V27.1588V27.1679V27.1769V27.186V27.195V27.2041V27.2131V27.2221V27.2311V27.2402V27.2492V27.2582V27.2672V27.2762V27.2852V27.2942V27.3032V27.3122V27.3211V27.3301V27.3391V27.348V27.357V27.3659V27.3749V27.3838V27.3928V27.4017V27.4106V27.4195V27.4284V27.4373V27.4462V27.4551V27.464V27.4728V27.4817V27.4905V27.4994V27.5082V27.517V27.5259V27.5347V27.5435V27.5523V27.5611V27.5698V27.5786V27.5874V27.5961V27.6049V27.6136V27.6223V27.6311V27.6398V27.6485V27.6571V27.6658V27.6745V27.6831V27.6918V27.7004V27.709V27.7177V27.7263V27.7349V27.7434V27.752V27.7606V27.7691V27.7777V27.7862V27.7947V27.8032V27.8117V27.8202V27.8286V27.8371V27.8455V27.854V27.8624V27.8708V27.8792V27.8876V27.8959V27.9043V27.9126V27.9209V27.9292V27.9375V27.9458V27.9541V27.9624V27.9706V27.9788V27.987V27.9952V28.0034V28.0116V28.0197V28.0279V28.036V28.0441V28.0522V28.0603V28.0684V28.0764V28.0844V28.0925V28.1005V28.1084V28.1164V28.1244V28.1323V28.1402V28.1481V28.156V28.1639V28.1717V28.1796V28.1874V28.1952V28.203V28.2107V28.2185V28.2262V28.2339V28.2416V28.2493V28.2569V28.2646V28.2722V28.2798V28.2874V28.295V28.3025V28.31V28.3175V28.325V28.3325V28.3399V28.3474V28.3548V28.3622V28.3695V28.3769V28.3842V28.3915V28.3988V28.4061V28.4133V28.4205V28.4278V28.4349V28.4421V28.4492V28.4564V28.4635V28.4705V28.4776V28.4846V28.4916V28.4986V28.5056V28.5125V28.5195V28.5264V28.5332V28.5401V28.5469V28.5537V28.5605V28.5673V28.574V28.5807V28.5874V28.5941V28.6007V28.6073V28.6139V28.6205V28.627V28.6336V28.6401V28.6465V28.653V28.6594V28.6658V28.6722V28.6785V28.6849V28.6912V28.6974V28.7037V28.7099V28.7161V28.7222V28.7284V28.7345V28.7406V28.7467V28.7527V28.7587V28.7647V28.7706V28.7766V28.7825V28.7883H6.09926C6.09925 29.2329 5.73884 29.5933 5.29426 29.5933C4.84967 29.5933 4.48926 29.2329 4.48926 28.7883L4.48943 28.7713V28.7706V28.7647V28.7587V28.7527V28.7467V28.7406V28.7345V28.7284V28.7222V28.7161V28.7099V28.7037V28.6974V28.6912V28.6849V28.6785V28.6722V28.6658V28.6594V28.653V28.6465V28.6401V28.6336V28.627V28.6205V28.6139V28.6073V28.6007V28.5941V28.5874V28.5807V28.574V28.5673V28.5605V28.5537V28.5469V28.5401V28.5332V28.5264V28.5195V28.5125V28.5056V28.4986V28.4916V28.4846V28.4776V28.4705V28.4635V28.4564V28.4492V28.4421V28.4349V28.4278V28.4205V28.4133V28.4061V28.3988V28.3915V28.3842V28.3769V28.3695V28.3622V28.3548V28.3474V28.3399V28.3325V28.325V28.3175V28.31V28.3025V28.295V28.2874V28.2798V28.2722V28.2646V28.2569V28.2493V28.2416V28.2339V28.2262V28.2185V28.2107V28.203V28.1952V28.1874V28.1796V28.1717V28.1639V28.156V28.1481V28.1402V28.1323V28.1244V28.1164V28.1084V28.1005V28.0925V28.0844V28.0764V28.0684V28.0603V28.0522V28.0441V28.036V28.0279V28.0197V28.0116V28.0034V27.9952V27.987V27.9788V27.9706V27.9624V27.9541V27.9458V27.9375V27.9292V27.9209V27.9126V27.9043V27.8959V27.8876V27.8792V27.8708V27.8624V27.854V27.8455V27.8371V27.8286V27.8202V27.8117V27.8032V27.7947V27.7862V27.7777V27.7691V27.7606V27.752V27.7434V27.7349V27.7263V27.7177V27.709V27.7004V27.6918V27.6831V27.6745V27.6658V27.6571V27.6485V27.6398V27.6311V27.6223V27.6136V27.6049V27.5961V27.5874V27.5786V27.5698V27.5611V27.5523V27.5435V27.5347V27.5259V27.517V27.5082V27.4994V27.4905V27.4817V27.4728V27.464V27.4551V27.4462V27.4373V27.4284V27.4195V27.4106V27.4017V27.3928V27.3838V27.3749V27.3659V27.357V27.348V27.3391V27.3301V27.3211V27.3122V27.3032V27.2942V27.2852V27.2762V27.2672V27.2582V27.2492V27.2402V27.2311V27.2221V27.2131V27.2041V27.195V27.186V27.1769V27.1679V27.1588V27.1498V27.1407V27.1316V27.1226V27.1135V27.1044V27.0954V27.0863V27.0772V27.0681V27.059V27.05V27.0409V27.0318V27.0227V27.0136V27.0045V26.9954V26.9863V26.9772V26.9681V26.959V26.9499V26.9408V26.9317V26.9226V26.9135V26.9044V26.8953V26.8862V26.8771V26.868V26.8589V26.8498V26.8407V26.8316V26.8225V26.8134V26.8043V26.7952V26.7861V26.777V26.7679V26.7588V26.7497V26.7406V26.7315V26.7224V26.7133V26.7043V26.6952V26.6861V26.677V26.668V26.6589V26.6498V26.6408V26.6317V26.6227V26.6136V26.6046V26.5955V26.5865V26.5774V26.5684V26.5594V26.5503V26.5413V26.5323V26.5233V26.5143V26.5053V26.4963V26.4873V26.4783V26.4693V26.4604V26.4514V26.4424V26.4335V26.4245V26.4156V26.4066V26.3977V26.3888V26.3798V26.3709V26.362V26.3531V26.3442V26.3353V26.3265V26.3176V26.3087V26.2999V26.291V26.2822V26.2733V26.2645V26.2557V26.2469V26.2381V26.2293V26.2205V26.2117V26.203V26.1942V26.1855V26.1767V26.168V26.1593V26.1506V26.1419V26.1332V26.1245V26.1158V26.1071V26.0985V26.0898V26.0812V26.0726V26.064V26.0554V26.0468V26.0382V26.0296V26.0211V26.0125V26.004V25.9955V25.987V25.9785V25.97V25.9615V25.9531V25.9446V25.9362V25.9278V25.9193V25.9109V25.9026V25.8942V25.8858V25.8775V25.8691V25.8608V25.8525V25.8442V25.8359V25.8277V25.8194V25.8112V25.803V25.7948V25.7866V25.7784V25.7702V25.7621V25.7539V25.7458V25.7377V25.7296V25.7216V25.7135V25.7055V25.6974V25.6894V25.6814V25.6734V25.6655V25.6575V25.6496V25.6417V25.6338V25.6259V25.6181V25.6102V25.6024V25.5946V25.5868V25.579V25.5712V25.5635V25.5558V25.5481V25.5404V25.5327V25.5251V25.5174V25.5098V25.5022V25.4947V25.4871V25.4796V25.472V25.4645V25.4571V25.4496V25.4422V25.4347V25.4273V25.42V25.4126V25.4053V25.3979V25.3906V25.3834V25.3761V25.3689V25.3616V25.3544V25.3473V25.3401V25.333V25.3259V25.3188V25.3117V25.3047V25.2976V25.2906V25.2837V25.2767V25.2698V25.2628V25.256V25.2491V25.2422V25.2354V25.2286V25.2218V25.2151V25.2084V25.2017V25.195V25.1883V25.1817V25.1751V25.1685V25.1619V25.1554V25.1489V25.1424V25.1359V25.1295V25.1231V25.1167V25.1103V25.104V25.0977V25.0914V25.0851V25.0789V25.0727V25.0665V25.0603V25.0542V25.0481V25.042V25.036V25.03V25.024V25.018V25.012V25.0061V25.0002V24.9944V24.9885V24.9827V24.9769V24.9712V24.9655V24.9598V24.9541V24.9485V24.9429V24.9373V24.9317V24.9262V24.9207V24.9152V24.9098V24.9044V24.899V24.8937V24.8883V24.8831V24.8778V24.8726V24.8674V24.8622V24.857V24.8519V24.8469V24.8418V24.8368V24.8318V24.8269V24.8219V24.817V24.8122V24.8073V24.8025V24.7978V24.793V24.7883C4.48943 22.4491 7.44441 21.2999 9.36365 23.2191C10.8695 24.725 11.8168 25.6691 13.241 26.6185C14.9385 27.7503 16.4119 27.9833 17.7944 27.9833C18.6363 27.9833 19.8137 27.6917 21.0374 27.0803C22.2099 26.4945 23.3719 25.6412 24.2749 24.5531C24.3002 24.5127 24.3295 24.474 24.3628 24.4375C24.6626 24.1092 25.1718 24.086 25.5001 24.3858C25.8003 24.6599 25.8454 25.109 25.6218 25.4349L25.6286 25.4404C24.5444 26.7956 23.1451 27.827 21.757 28.5205C20.378 29.2095 18.9525 29.5933 17.7944 29.5933C16.1769 29.5933 14.3713 29.3071 12.3479 27.9581C10.7814 26.9138 9.73188 25.8642 8.25179 24.3841L8.22521 24.3575Z" fill="#042D48"/>
<path fill-rule="evenodd" clip-rule="evenodd" d="M13.0893 1.68898C13.0884 1.65973 13.086 1.63023 13.0818 1.60058C13.0202 1.16028 12.6133 0.853322 12.173 0.914964C11.7327 0.976606 11.4257 1.38351 11.4874 1.8238C11.4904 1.84546 11.4943 1.8668 11.4989 1.88778L11.4959 1.88816C11.5831 2.5853 11.7912 3.78724 12.1402 4.88264C12.314 5.42836 12.5334 5.98193 12.8097 6.44094C13.0714 6.87577 13.4635 7.35978 14.0401 7.552C14.9841 7.86666 15.9348 7.48023 16.599 7.10756C17.1618 6.7918 17.6942 6.38105 18.0584 6.1001L18.0585 6.10007C18.1406 6.03668 18.2142 5.9799 18.2777 5.93231C18.5344 5.73978 19.0485 5.44882 19.6829 5.24644C20.3166 5.04428 21.0051 4.95133 21.6368 5.07768C23.8377 5.51785 25.1577 6.81438 26.0747 8.64832C27.0125 10.5239 27.4897 12.3984 27.4897 15.2883C27.4897 16.4433 27.2567 17.7445 26.9537 18.8959C26.6577 20.0209 26.3104 20.9449 26.0919 21.3934C26.0673 21.4332 26.0459 21.4758 26.0281 21.5209C25.8646 21.9344 26.0673 22.402 26.4807 22.5655C26.8828 22.7244 27.3361 22.5371 27.5111 22.1465L27.5147 22.1483C27.7976 21.5825 28.1896 20.5257 28.5107 19.3057C28.8327 18.0821 29.0997 16.6334 29.0997 15.2883C29.0997 12.1782 28.5769 10.0527 27.5147 7.9283C26.4317 5.76224 24.7517 4.05877 21.9526 3.49894C20.9671 3.30185 19.9889 3.45889 19.1936 3.7126C18.399 3.96608 17.7217 4.33684 17.3117 4.64431C17.2224 4.7113 17.1296 4.78265 17.0336 4.8565L17.0336 4.85653L17.0336 4.85654L17.0336 4.85654C16.6701 5.13617 16.2598 5.45177 15.8112 5.70346C15.2185 6.03599 14.8053 6.10996 14.5493 6.02462C14.5259 6.01684 14.3888 5.94252 14.1891 5.61068C14.0039 5.30302 13.8296 4.88159 13.6742 4.39398C13.3648 3.42271 13.173 2.32465 13.0935 1.68846L13.0893 1.68898Z" fill="#042D48"/>
<path fill-rule="evenodd" clip-rule="evenodd" d="M8.61046 1.34647C8.61571 1.30575 8.61791 1.26411 8.61682 1.22179C8.60538 0.777353 8.23582 0.426334 7.79137 0.437772C7.34693 0.44921 6.99591 0.818774 7.00735 1.26322C7.00739 1.26477 7.00744 1.26632 7.00748 1.26787H7C7 2.08203 7.12543 3.3325 7.37998 4.59621C7.63192 5.84696 8.0286 7.20518 8.61472 8.18204C9.32242 9.36153 10.0205 10.0743 10.7092 10.5605C11.2059 10.9111 11.715 11.1466 12.1112 11.3298C12.2347 11.387 12.3472 11.439 12.445 11.4879C12.5924 11.5616 12.7358 11.6241 12.8609 11.6777L12.927 11.706L12.927 11.706C13.0285 11.7493 13.1145 11.786 13.199 11.8255C13.3975 11.9181 13.5195 11.9958 13.6108 12.0871C13.7644 12.2407 14 12.6053 14 13.7679V13.7825V13.7972V13.8118V13.8264V13.8411V13.8557V13.8703V13.8849V13.8995V13.9142V13.9288V13.9434V13.958V13.9726V13.9871V14.0017V14.0163V14.0309V14.0455V14.06V14.0746V14.0891V14.1037V14.1182V14.1328V14.1473V14.1618V14.1764V14.1909V14.2054V14.2199V14.2344V14.2489V14.2634V14.2779V14.2924V14.3069V14.3213V14.3358V14.3503V14.3647V14.3792V14.3936V14.4081V14.4225V14.4369V14.4514V14.4658V14.4802V14.4946V14.509V14.5234V14.5378V14.5522V14.5665V14.5809V14.5953V14.6096V14.624V14.6383V14.6526V14.667V14.6813V14.6956V14.7099V14.7242V14.7385V14.7528V14.7671V14.7814V14.7956V14.8099V14.8241V14.8384V14.8526V14.8669V14.8811V14.8953V14.9095V14.9237V14.9379V14.9521V14.9663V14.9805V14.9946V15.0088V15.0229V15.0371V15.0512V15.0653V15.0795V15.0936V15.1077V15.1218V15.1359V15.15V15.164V15.1781V15.1921V15.2062V15.2202V15.2343V15.2483V15.2623V15.2763V15.2903V15.3043V15.3183V15.3322V15.3462V15.3602V15.3741V15.388V15.402V15.4159V15.4298V15.4437V15.4576V15.4715V15.4853V15.4992V15.5131V15.5269V15.5407V15.5546V15.5684V15.5822V15.596V15.6098V15.6236V15.6373V15.6511V15.6648V15.6786V15.6923V15.706V15.7197V15.7334V15.7471V15.7608V15.7745V15.7882V15.8018V15.8154V15.8291V15.8427V15.8563V15.8699V15.8835V15.8971V15.9106V15.9242V15.9377V15.9513V15.9648V15.9783V15.9918V16.0053V16.0188V16.0323V16.0457V16.0592V16.0726V16.0861V16.0995V16.1129V16.1263V16.1396V16.153V16.1664V16.1797V16.1931V16.2064V16.2197V16.233V16.2463V16.2596V16.2728V16.2861V16.2993V16.3126V16.3258V16.339V16.3522V16.3654V16.3785V16.3917V16.4049V16.418V16.4311V16.4442V16.4573V16.4704V16.4835V16.4965V16.5096V16.5226V16.5357V16.5487V16.5617V16.5746V16.5876V16.6006V16.6135V16.6265V16.6394V16.6523V16.6652V16.6781V16.6909V16.7038V16.7166V16.7295V16.7423V16.7551V16.7679V16.7806V16.7934V16.8061V16.8189V16.8316V16.8443V16.857V16.8697V16.8823V16.895V16.9076V16.9203V16.9329V16.9455V16.958V16.9706V16.9832V16.9957V17.0082V17.0207V17.0332V17.0457V17.0582V17.0706V17.0831V17.0955V17.1079V17.1203V17.1327V17.145V17.1574V17.1697V17.182V17.1944V17.2066V17.2189V17.2312V17.2434V17.2557V17.2679V17.2801V17.2923V17.3044V17.3166V17.3287V17.3408V17.3529V17.365V17.3771V17.3892V17.4012V17.4132V17.4253V17.4373V17.4492V17.4612V17.4731V17.4851V17.497V17.5089V17.5208V17.5327V17.5445V17.5563V17.5682V17.58V17.5918V17.6035V17.6153V17.627V17.6387V17.6504V17.6621V17.6738V17.6855V17.6971V17.7087V17.7203V17.7319V17.7435V17.755V17.7666V17.7781V17.7896V17.8011V17.8125V17.824V17.8354V17.8468V17.8582V17.8696V17.881V17.8923V17.9036V17.9149V17.9262V17.9375V17.9488V17.96V17.9712V17.9824V17.9936V18.0048V18.0159V18.027V18.0382V18.0493V18.0603V18.0714V18.0824V18.0934V18.1044V18.1154V18.1264V18.1373V18.1483V18.1592V18.1701V18.1809V18.1918V18.2026V18.2134V18.2242V18.235V18.2458V18.2565V18.2672V18.2779V18.2886V18.2993V18.3099V18.3205V18.3311V18.3417V18.3523V18.3628V18.3734V18.3839V18.3944V18.4048V18.4153V18.4257V18.4361V18.4465V18.4569V18.4672V18.4775V18.4879V18.4981V18.5084V18.5187V18.5289V18.5391V18.5493V18.5594V18.5696V18.5797V18.5898V18.5999V18.61V18.62V18.63V18.64V18.65V18.66V18.6699V18.6798V18.6897V18.6996V18.7095V18.7193V18.7291V18.7389V18.7487V18.7584V18.7682V18.7779V18.7876V18.7972V18.8069V18.8165V18.8261V18.8357V18.8452V18.8548V18.8643V18.8738V18.8832V18.8927V18.9021V18.9115V18.9209V18.9303V18.9396V18.9489V18.9582V18.9675V18.9767V18.986V18.9952V19.0043V19.0135V19.0226V19.0318V19.0409V19.0499V19.059V19.068V19.077V19.086V19.0949V19.1039V19.1128V19.1217V19.1305V19.1394V19.1482V19.157V19.1657V19.1745V19.1832V19.1919V19.2006V19.2092V19.2179V19.2265V19.2351V19.2436V19.2522V19.2607V19.2692V19.2776V19.2861V19.2945V19.3029V19.3113V19.3196V19.3279V19.3362V19.3445V19.3527V19.361V19.3692V19.3773V19.3855V19.3936V19.4017V19.4098V19.4179V19.4259V19.4339V19.4419V19.4498V19.4578V19.4657V19.4735V19.4814V19.4892V19.497V19.5048V19.5126V19.5203V19.528V19.5357V19.5433V19.551V19.5586V19.5662V19.5737V19.5812V19.5887V19.5962V19.6037V19.6111V19.6185V19.6259V19.6332V19.6405V19.6478V19.6551V19.6624V19.6696V19.6768V19.6786C13.9304 19.9507 13.7717 20.2206 13.5696 20.3454C13.4286 20.4324 13.0559 20.5796 12.2192 20.0776C9.73945 18.5898 8.55813 17.9629 6.805 17.9629C5.97844 17.9629 4.87249 18.0989 3.81853 18.5204C2.76071 18.9436 1.6993 19.6792 1.08499 20.9079C0.0773307 22.9232 0 24.7333 0 26.2679V26.2749V26.2819V26.2889V26.296V26.303V26.31V26.317V26.3239V26.3309V26.3379V26.3449V26.3519V26.3588V26.3658V26.3727V26.3797V26.3866V26.3935V26.4005V26.4074V26.4143V26.4212V26.4281V26.435V26.4419V26.4488V26.4557V26.4626V26.4695V26.4763V26.4832V26.49V26.4969V26.5037V26.5106V26.5174V26.5242V26.531V26.5379V26.5447V26.5515V26.5583V26.565V26.5718V26.5786V26.5854V26.5921V26.5989V26.6056V26.6124V26.6191V26.6259V26.6326V26.6393V26.646V26.6527V26.6594V26.6661V26.6728V26.6795V26.6862V26.6928V26.6995V26.7062V26.7128V26.7194V26.7261V26.7327V26.7393V26.746V26.7526V26.7592V26.7658V26.7724V26.7789V26.7855V26.7921V26.7986V26.8052V26.8118V26.8183V26.8248V26.8314V26.8379V26.8444V26.8509V26.8574V26.8639V26.8704V26.8769V26.8834V26.8898V26.8963V26.9027V26.9092V26.9156V26.9221V26.9285V26.9349V26.9413V26.9477V26.9541V26.9605V26.9669V26.9733V26.9796V26.986V26.9923V26.9987V27.005V27.0114V27.0177V27.024V27.0303V27.0366V27.0429V27.0492V27.0555V27.0618V27.068V27.0743V27.0805V27.0868V27.093V27.0992V27.1055V27.1117V27.1179V27.1241V27.1303V27.1364V27.1426V27.1488V27.1549V27.1611V27.1672V27.1734V27.1795V27.1856V27.1917V27.1978V27.2039V27.21V27.2161V27.2222V27.2282V27.2343V27.2403V27.2464V27.2524V27.2584V27.2645V27.2705V27.2765V27.2825V27.2884V27.2944V27.3004V27.3064V27.3123V27.3182V27.3242V27.3301V27.336V27.3419V27.3478V27.3537V27.3596V27.3655V27.3714V27.3772V27.3831V27.3889V27.3948V27.4006V27.4064V27.4122V27.418V27.4238V27.4296V27.4354V27.4411V27.4469V27.4527V27.4584V27.4641V27.4698V27.4756V27.4813V27.487V27.4927V27.4983V27.504V27.5097V27.5153V27.521V27.5266V27.5322V27.5379V27.5435V27.5491V27.5547V27.5602V27.5658V27.5714V27.5769V27.5825V27.588V27.5936V27.5991V27.6046V27.6101V27.6156V27.6211V27.6265V27.632V27.6375V27.6429V27.6483V27.6538V27.6592V27.6646V27.67V27.6754V27.6808V27.6861V27.6915V27.6969V27.7022V27.7075V27.7129V27.7182V27.7235V27.7288V27.7341V27.7393V27.7446V27.7499V27.7551V27.7604V27.7656V27.7708V27.776V27.7812V27.7864V27.7916V27.7968V27.8019V27.8071V27.8122V27.8174V27.8225V27.8276V27.8327V27.8378V27.8429V27.8479V27.853V27.8581V27.8631V27.8681V27.8732V27.8782V27.8832V27.8882V27.8932V27.8981V27.9031V27.908V27.913V27.9179V27.9228V27.9277V27.9327V27.9375V27.9424V27.9473V27.9522V27.957V27.9618V27.9667V27.9715V27.9763V27.9811V27.9859V27.9907V27.9954V28.0002V28.0049V28.0097V28.0144V28.0191V28.0238V28.0285V28.0332V28.0379V28.0425V28.0472V28.0518V28.0565V28.0611V28.0657V28.0703V28.0749V28.0794V28.084V28.0886V28.0931V28.0976V28.1022V28.1067V28.1112V28.1157V28.1201V28.1246V28.1291V28.1335V28.1379V28.1424V28.1468V28.1512V28.1556V28.1599V28.1643V28.1687V28.173V28.1774V28.1817V28.186V28.1903V28.1946V28.1989V28.2031V28.2074V28.2116V28.2159V28.2201V28.2243V28.2285V28.2327V28.2369V28.241V28.2452V28.2493V28.2534V28.2576V28.2617V28.2658V28.2698V28.2739V28.278V28.282V28.2861V28.2901V28.2941V28.2981V28.3021V28.3061V28.31V28.314V28.3179V28.3219V28.3258V28.3297V28.3336V28.3375V28.3414V28.3452V28.3491V28.3529V28.3567V28.3606V28.3644V28.3681V28.3719V28.3757V28.3794V28.3832V28.3869V28.3906V28.3943V28.398V28.4017V28.4054V28.409V28.4127V28.4163V28.4199V28.4235V28.4271V28.4307V28.4343V28.4378V28.4414V28.4449V28.4484V28.4519V28.4554V28.4589V28.4624V28.4658V28.4693V28.4727V28.4761V28.4796V28.483V28.4863V28.4897V28.4931V28.4964V28.4997V28.5031V28.5064V28.5097V28.5129V28.5162V28.5195V28.5227V28.5259V28.5292V28.5324V28.5356V28.5387V28.5419V28.5451V28.5482V28.5513V28.5544V28.5575V28.5606V28.5637V28.5668V28.5698V28.5728V28.5759V28.5789V28.5819V28.5849V28.5878V28.5908V28.5937V28.5967V28.5996V28.6025V28.6054V28.6082V28.6111V28.614V28.6168V28.6196V28.6224V28.6252V28.628V28.6308V28.6335V28.6363V28.639V28.6417V28.6444V28.6471V28.6498V28.6525V28.6551V28.6578V28.6604V28.663V28.6656V28.6682V28.6707V28.6733V28.6758V28.6783V28.6809V28.6833V28.6858V28.6883V28.6908V28.6932V28.6956V28.698V28.7004V28.7028V28.7052V28.7076V28.7099V28.7122V28.7146V28.7169V28.7192V28.7214V28.7237V28.7259V28.7282V28.7304V28.7326V28.7348V28.737V28.7391V28.7413V28.7434V28.7455V28.7476V28.7497V28.7518V28.7538V28.7559V28.7579V28.7599V28.7619V28.7639V28.7659V28.7679H0.0105664C0.0105664 29.2125 0.370977 29.5729 0.815566 29.5729C1.26016 29.5729 1.62057 29.2125 1.62057 28.7679C1.62057 28.7233 1.61695 28.6797 1.61 28.6371V28.6363V28.6335V28.6308V28.628V28.6252V28.6224V28.6196V28.6168V28.614V28.6111V28.6082V28.6054V28.6025V28.5996V28.5967V28.5937V28.5908V28.5878V28.5849V28.5819V28.5789V28.5759V28.5728V28.5698V28.5668V28.5637V28.5606V28.5575V28.5544V28.5513V28.5482V28.5451V28.5419V28.5387V28.5356V28.5324V28.5292V28.5259V28.5227V28.5195V28.5162V28.5129V28.5097V28.5064V28.5031V28.4997V28.4964V28.4931V28.4897V28.4863V28.483V28.4796V28.4761V28.4727V28.4693V28.4658V28.4624V28.4589V28.4554V28.4519V28.4484V28.4449V28.4414V28.4378V28.4343V28.4307V28.4271V28.4235V28.4199V28.4163V28.4127V28.409V28.4054V28.4017V28.398V28.3943V28.3906V28.3869V28.3832V28.3794V28.3757V28.3719V28.3681V28.3644V28.3606V28.3567V28.3529V28.3491V28.3452V28.3414V28.3375V28.3336V28.3297V28.3258V28.3219V28.3179V28.314V28.31V28.3061V28.3021V28.2981V28.2941V28.2901V28.2861V28.282V28.278V28.2739V28.2698V28.2658V28.2617V28.2576V28.2534V28.2493V28.2452V28.241V28.2369V28.2327V28.2285V28.2243V28.2201V28.2159V28.2116V28.2074V28.2031V28.1989V28.1946V28.1903V28.186V28.1817V28.1774V28.173V28.1687V28.1643V28.1599V28.1556V28.1512V28.1468V28.1424V28.1379V28.1335V28.1291V28.1246V28.1201V28.1157V28.1112V28.1067V28.1022V28.0976V28.0931V28.0886V28.084V28.0794V28.0749V28.0703V28.0657V28.0611V28.0565V28.0518V28.0472V28.0425V28.0379V28.0332V28.0285V28.0238V28.0191V28.0144V28.0097V28.0049V28.0002V27.9954V27.9907V27.9859V27.9811V27.9763V27.9715V27.9667V27.9618V27.957V27.9522V27.9473V27.9424V27.9375V27.9327V27.9277V27.9228V27.9179V27.913V27.908V27.9031V27.8981V27.8932V27.8882V27.8832V27.8782V27.8732V27.8681V27.8631V27.8581V27.853V27.8479V27.8429V27.8378V27.8327V27.8276V27.8225V27.8174V27.8122V27.8071V27.8019V27.7968V27.7916V27.7864V27.7812V27.776V27.7708V27.7656V27.7604V27.7551V27.7499V27.7446V27.7393V27.7341V27.7288V27.7235V27.7182V27.7129V27.7075V27.7022V27.6969V27.6915V27.6861V27.6808V27.6754V27.67V27.6646V27.6592V27.6538V27.6483V27.6429V27.6375V27.632V27.6265V27.6211V27.6156V27.6101V27.6046V27.5991V27.5936V27.588V27.5825V27.5769V27.5714V27.5658V27.5602V27.5547V27.5491V27.5435V27.5379V27.5322V27.5266V27.521V27.5153V27.5097V27.504V27.4983V27.4927V27.487V27.4813V27.4756V27.4698V27.4641V27.4584V27.4527V27.4469V27.4411V27.4354V27.4296V27.4238V27.418V27.4122V27.4064V27.4006V27.3948V27.3889V27.3831V27.3772V27.3714V27.3655V27.3596V27.3537V27.3478V27.3419V27.336V27.3301V27.3242V27.3182V27.3123V27.3064V27.3004V27.2944V27.2884V27.2825V27.2765V27.2705V27.2645V27.2584V27.2524V27.2464V27.2403V27.2343V27.2282V27.2222V27.2161V27.21V27.2039V27.1978V27.1917V27.1856V27.1795V27.1734V27.1672V27.1611V27.1549V27.1488V27.1426V27.1364V27.1303V27.1241V27.1179V27.1117V27.1055V27.0992V27.093V27.0868V27.0805V27.0743V27.068V27.0618V27.0555V27.0492V27.0429V27.0366V27.0303V27.024V27.0177V27.0114V27.005V26.9987V26.9923V26.986V26.9796V26.9733V26.9669V26.9605V26.9541V26.9477V26.9413V26.9349V26.9285V26.9221V26.9156V26.9092V26.9027V26.8963V26.8898V26.8834V26.8769V26.8704V26.8639V26.8574V26.8509V26.8444V26.8379V26.8314V26.8248V26.8183V26.8118V26.8052V26.7986V26.7921V26.7855V26.7789V26.7724V26.7658V26.7592V26.7526V26.746V26.7393V26.7327V26.7261V26.7194V26.7128V26.7062V26.6995V26.6928V26.6862V26.6795V26.6728V26.6661V26.6594V26.6527V26.646V26.6393V26.6326V26.6259V26.6191V26.6124V26.6056V26.5989V26.5921V26.5854V26.5786V26.5718V26.565V26.5583V26.5515V26.5447V26.5379V26.531V26.5242V26.5174V26.5106V26.5037V26.4969V26.49V26.4832V26.4763V26.4695V26.4626V26.4557V26.4488V26.4419V26.435V26.4281V26.4212V26.4143V26.4074V26.4005V26.3935V26.3866V26.3797V26.3727V26.3658V26.3588V26.3519V26.3449V26.3379V26.3309V26.3239V26.317V26.31V26.303V26.296V26.2889V26.2819V26.2749V26.2679C1.61 24.8025 1.68876 23.3004 2.52501 21.6279C2.9107 20.8565 3.59929 20.3422 4.41647 20.0153C5.23751 19.6869 6.13156 19.5729 6.805 19.5729C8.05187 19.5729 8.87055 19.946 11.3908 21.4582C12.5541 22.1561 13.598 22.22 14.4154 21.7153C15.1546 21.259 15.4866 20.4648 15.5944 19.9257L15.61 19.8476V19.7679V19.761V19.7541V19.7472V19.7403V19.7334V19.7264V19.7194V19.7123V19.7053V19.6982V19.6911V19.6839V19.6768V19.6696V19.6624V19.6551V19.6478V19.6405V19.6332V19.6259V19.6185V19.6111V19.6037V19.5962V19.5887V19.5812V19.5737V19.5662V19.5586V19.551V19.5433V19.5357V19.528V19.5203V19.5126V19.5048V19.497V19.4892V19.4814V19.4735V19.4657V19.4578V19.4498V19.4419V19.4339V19.4259V19.4179V19.4098V19.4017V19.3936V19.3855V19.3773V19.3692V19.361V19.3527V19.3445V19.3362V19.3279V19.3196V19.3113V19.3029V19.2945V19.2861V19.2776V19.2692V19.2607V19.2522V19.2436V19.2351V19.2265V19.2179V19.2092V19.2006V19.1919V19.1832V19.1745V19.1657V19.157V19.1482V19.1394V19.1305V19.1217V19.1128V19.1039V19.0949V19.086V19.077V19.068V19.059V19.0499V19.0409V19.0318V19.0226V19.0135V19.0043V18.9952V18.986V18.9767V18.9675V18.9582V18.9489V18.9396V18.9303V18.9209V18.9115V18.9021V18.8927V18.8832V18.8738V18.8643V18.8548V18.8452V18.8357V18.8261V18.8165V18.8069V18.7972V18.7876V18.7779V18.7682V18.7584V18.7487V18.7389V18.7291V18.7193V18.7095V18.6996V18.6897V18.6798V18.6699V18.66V18.65V18.64V18.63V18.62V18.61V18.5999V18.5898V18.5797V18.5696V18.5594V18.5493V18.5391V18.5289V18.5187V18.5084V18.4981V18.4879V18.4775V18.4672V18.4569V18.4465V18.4361V18.4257V18.4153V18.4048V18.3944V18.3839V18.3734V18.3628V18.3523V18.3417V18.3311V18.3205V18.3099V18.2993V18.2886V18.2779V18.2672V18.2565V18.2458V18.235V18.2242V18.2134V18.2026V18.1918V18.1809V18.1701V18.1592V18.1483V18.1373V18.1264V18.1154V18.1044V18.0934V18.0824V18.0714V18.0603V18.0493V18.0382V18.027V18.0159V18.0048V17.9936V17.9824V17.9712V17.96V17.9488V17.9375V17.9262V17.9149V17.9036V17.8923V17.881V17.8696V17.8582V17.8468V17.8354V17.824V17.8125V17.8011V17.7896V17.7781V17.7666V17.755V17.7435V17.7319V17.7203V17.7087V17.6971V17.6855V17.6738V17.6621V17.6504V17.6387V17.627V17.6153V17.6035V17.5918V17.58V17.5682V17.5563V17.5445V17.5327V17.5208V17.5089V17.497V17.4851V17.4731V17.4612V17.4492V17.4373V17.4253V17.4132V17.4012V17.3892V17.3771V17.365V17.3529V17.3408V17.3287V17.3166V17.3044V17.2923V17.2801V17.2679V17.2557V17.2434V17.2312V17.2189V17.2066V17.1944V17.182V17.1697V17.1574V17.145V17.1327V17.1203V17.1079V17.0955V17.0831V17.0706V17.0582V17.0457V17.0332V17.0207V17.0082V16.9957V16.9832V16.9706V16.958V16.9455V16.9329V16.9203V16.9076V16.895V16.8823V16.8697V16.857V16.8443V16.8316V16.8189V16.8061V16.7934V16.7806V16.7679V16.7551V16.7423V16.7295V16.7166V16.7038V16.6909V16.6781V16.6652V16.6523V16.6394V16.6265V16.6135V16.6006V16.5876V16.5746V16.5617V16.5487V16.5357V16.5226V16.5096V16.4965V16.4835V16.4704V16.4573V16.4442V16.4311V16.418V16.4049V16.3917V16.3785V16.3654V16.3522V16.339V16.3258V16.3126V16.2993V16.2861V16.2728V16.2596V16.2463V16.233V16.2197V16.2064V16.1931V16.1797V16.1664V16.153V16.1396V16.1263V16.1129V16.0995V16.0861V16.0726V16.0592V16.0457V16.0323V16.0188V16.0053V15.9918V15.9783V15.9648V15.9513V15.9377V15.9242V15.9106V15.8971V15.8835V15.8699V15.8563V15.8427V15.8291V15.8154V15.8018V15.7882V15.7745V15.7608V15.7471V15.7334V15.7197V15.706V15.6923V15.6786V15.6648V15.6511V15.6373V15.6236V15.6098V15.596V15.5822V15.5684V15.5546V15.5407V15.5269V15.5131V15.4992V15.4853V15.4715V15.4576V15.4437V15.4298V15.4159V15.402V15.388V15.3741V15.3602V15.3462V15.3322V15.3183V15.3043V15.2903V15.2763V15.2623V15.2483V15.2343V15.2202V15.2062V15.1921V15.1781V15.164V15.15V15.1359V15.1218V15.1077V15.0936V15.0795V15.0653V15.0512V15.0371V15.0229V15.0088V14.9946V14.9805V14.9663V14.9521V14.9379V14.9237V14.9095V14.8953V14.8811V14.8669V14.8526V14.8384V14.8241V14.8099V14.7956V14.7814V14.7671V14.7528V14.7385V14.7242V14.7099V14.6956V14.6813V14.667V14.6526V14.6383V14.624V14.6096V14.5953V14.5809V14.5665V14.5522V14.5378V14.5234V14.509V14.4946V14.4802V14.4658V14.4514V14.4369V14.4225V14.4081V14.3936V14.3792V14.3647V14.3503V14.3358V14.3213V14.3069V14.2924V14.2779V14.2634V14.2489V14.2344V14.2199V14.2054V14.1909V14.1764V14.1618V14.1473V14.1328V14.1182V14.1037V14.0891V14.0746V14.06V14.0455V14.0309V14.0163V14.0017V13.9871V13.9726V13.958V13.9434V13.9288V13.9142V13.8995V13.8849V13.8703V13.8557V13.8411V13.8264V13.8118V13.7972V13.7825V13.7679C15.61 12.4304 15.3456 11.545 14.7492 10.9486C14.4655 10.665 14.15 10.4926 13.8798 10.3665C13.769 10.3148 13.6541 10.2658 13.5523 10.2223L13.4952 10.1979C13.3742 10.1461 13.2676 10.0991 13.165 10.0479C12.9922 9.96144 12.834 9.88819 12.6835 9.81855L12.6835 9.81854C12.3216 9.65099 12.0047 9.5043 11.6378 9.24522C11.1554 8.90473 10.6036 8.36751 9.99528 7.3537C9.55241 6.61558 9.19909 5.4738 8.95828 4.27829C8.72896 3.13984 8.61839 2.03893 8.61046 1.34647Z" fill="#042D48"/>
</svg>
