<svg width="33" height="32" viewBox="0 0 33 32" fill="none" xmlns="http://www.w3.org/2000/svg">
<path d="M31.8202 9.51058C31.8202 14.1057 28.0951 17.8308 23.5 17.8308C18.9049 17.8308 15.1798 14.1057 15.1798 9.51058C15.1798 4.91544 18.9049 1.19034 23.5 1.19034C28.0951 1.19034 31.8202 4.91544 31.8202 9.51058Z" stroke="#042D48" stroke-width="1.47"/>
<path fill-rule="evenodd" clip-rule="evenodd" d="M2.12014 12.1045C2.24703 11.7586 2.39984 11.3898 2.63191 11.1344C2.7424 11.0128 2.85441 10.9367 2.97272 10.8971C3.08692 10.8588 3.25452 10.8384 3.50676 10.9014C3.72602 10.9563 3.93056 11.163 4.07637 11.6618C4.21602 12.1396 4.23603 12.6843 4.23603 13.016C4.23603 14.6677 4.7508 16.9012 5.01538 17.9346C5.23713 18.8006 5.74522 19.6894 6.28269 20.4167C6.81769 21.1407 7.44381 21.788 7.96706 22.1369C8.99694 22.8234 9.90795 23.0256 10.6816 23.0256C11.0588 23.0256 11.7523 22.9718 12.2697 22.5593C12.5564 22.3308 12.7755 22.0016 12.845 21.5728C12.9112 21.1639 12.8319 20.7259 12.65 20.2711C12.4208 19.6981 12.1886 19.1341 11.9744 18.6138C11.8362 18.2781 11.7055 17.9605 11.5879 17.6705C11.2767 16.903 11.0612 16.3365 10.9775 16.0115C10.7871 15.2723 10.6522 14.6212 10.6668 14.1239C10.6809 13.6438 10.8152 13.5293 10.9546 13.4736C11.1139 13.4098 11.2952 13.4086 11.5733 13.5604C11.8757 13.7255 12.2324 14.0438 12.6485 14.5319C13.3016 15.2979 13.9799 16.3307 14.7338 17.4786C14.9288 17.7755 15.1289 18.0801 15.3348 18.3897C15.3475 18.4165 15.3619 18.4428 15.3782 18.4686C15.5948 18.8119 16.0487 18.9145 16.392 18.6979C16.7353 18.4813 16.838 18.0274 16.6214 17.6841C16.616 17.6757 16.6106 17.6674 16.605 17.6592L16.6116 17.6548C16.4058 17.3462 16.2008 17.0339 15.9968 16.7231L15.9968 16.7231C15.2344 15.5615 14.486 14.4215 13.7671 13.5782C13.3092 13.0411 12.8141 12.563 12.2776 12.2701C11.7167 11.964 11.0719 11.8434 10.4086 12.1087C9.48213 12.4793 9.21938 13.3326 9.19745 14.0808C9.17602 14.8117 9.36619 15.6493 9.55396 16.3782C9.66691 16.8167 9.92413 17.4793 10.2256 18.2229C10.3497 18.5289 10.4824 18.8511 10.621 19.1877L10.6217 19.1894L10.6218 19.1896C10.8324 19.7011 11.0566 20.2457 11.2852 20.8171C11.4058 21.1187 11.4037 21.2772 11.3939 21.3376C11.3873 21.3781 11.3771 21.3909 11.3533 21.4099C11.314 21.4413 11.2336 21.4827 11.0972 21.5137C10.9651 21.5437 10.8177 21.5556 10.6816 21.5556C10.1946 21.5556 9.56792 21.4374 8.78247 20.9137C8.45479 20.6953 7.94632 20.1946 7.46493 19.5431C6.986 18.895 6.59589 18.1809 6.43944 17.5699C6.17336 16.5307 5.70603 14.4612 5.70603 13.016C5.70603 12.6543 5.68814 11.9365 5.48734 11.2494C5.2927 10.5835 4.85424 9.72308 3.86329 9.47533C3.37284 9.35272 2.91697 9.36549 2.50585 9.50319C2.09884 9.63952 1.78367 9.88207 1.54406 10.1457C1.08423 10.6517 0.847688 11.3021 0.725143 11.6391L0.712098 11.675L0.702839 11.712C0.494238 12.5464 0.14901 14.8514 0.303717 17.7909C0.560658 22.6727 3.00746 26.687 4.80516 28.3723C9.70908 32.9697 17.6743 32.6779 23.3446 29.3539C25.6669 27.9926 27.5403 25.8752 28.8888 23.8883C30.2333 21.9073 31.1068 19.9801 31.3865 18.9311L31.4113 18.8381V18.7418C31.4113 18.6192 31.3918 18.434 31.2822 18.251C31.1579 18.0435 30.9632 17.9145 30.7561 17.8635C30.575 17.8189 30.4139 17.8401 30.3115 17.8623C30.2029 17.8857 30.1032 17.923 30.0205 17.9592C29.7145 18.0928 29.3349 18.3505 28.9852 18.5942C28.884 18.6648 28.782 18.7364 28.6798 18.8083L28.6794 18.8085C27.9954 19.2892 27.2972 19.7798 26.727 20.0079C26.0647 20.2728 24.6559 20.6018 23.1123 20.6184C21.5584 20.635 20.0154 20.3335 18.9592 19.4886L18.9531 19.4962C18.9525 19.4958 18.952 19.4953 18.9514 19.4949C18.6304 19.2466 18.1687 19.3056 17.9204 19.6267C17.672 19.9477 17.731 20.4094 18.0521 20.6577C18.084 20.6824 18.1174 20.7041 18.1517 20.7227C19.5835 21.8072 21.4781 22.106 23.1281 22.0883C24.8313 22.07 26.4226 21.7129 27.273 21.3728C27.948 21.1028 28.7198 20.5777 29.3505 20.1346C28.9552 20.9781 28.3923 22.0021 27.6725 23.0628C26.3921 24.9492 24.6659 26.8754 22.6012 28.0858C17.3039 31.191 10.0967 31.3182 5.81056 27.2999C4.27544 25.8607 2.00767 22.1974 1.77169 17.7136C1.62636 14.9524 1.94806 12.8206 2.12014 12.1045Z" fill="#042D48"/>
</svg>
