<svg width="33" height="30" viewBox="0 0 33 30" fill="none" xmlns="http://www.w3.org/2000/svg">
<path fill-rule="evenodd" clip-rule="evenodd" d="M25.2532 2.68938C24.2665 2.25461 22.8927 1.92777 21.7188 2.29501C21.0443 2.506 20.3313 2.94342 19.6014 3.44161C19.4579 3.53955 19.3104 3.64252 19.1611 3.7467C18.6115 4.13027 18.0384 4.53018 17.5583 4.75548C17.0587 4.98995 16.5842 5.12088 16.0891 5.11049C15.5973 5.10017 15.1613 4.95162 14.7433 4.75548C14.2109 4.50563 13.8886 4.24206 13.5964 4.00316C13.5374 3.95487 13.4796 3.90759 13.4215 3.86164C13.084 3.59456 12.6045 3.2518 11.5468 2.75548C10.6595 2.33913 9.49451 2.21422 8.27167 2.38637C7.05388 2.5578 5.84493 3.0153 4.89349 3.68501C3.29449 4.81052 2.03859 6.79467 2.03859 9.52673C2.03859 11.5331 2.8618 13.3384 3.40483 14.3868C3.46253 14.4442 3.51212 14.5106 3.55106 14.5852C3.75947 14.9845 3.58356 15.4667 3.15815 15.6623C2.73274 15.8579 2.21893 15.6928 2.01052 15.2935C1.96749 15.2111 1.94084 15.1251 1.92939 15.0389C1.34919 13.9083 0.428589 11.8617 0.428589 9.52673C0.428589 6.25878 1.9493 3.78852 3.96679 2.36845C5.14638 1.53815 6.60123 0.99565 8.04723 0.792086C9.48818 0.589234 10.9869 0.714319 12.2307 1.29797C13.3959 1.84473 13.9819 2.25197 14.4206 2.59912C14.506 2.66676 14.5805 2.72722 14.6482 2.78223L14.6482 2.78224L14.6482 2.78224C14.9219 3.00449 15.0863 3.13795 15.4273 3.29798C15.742 3.44567 15.9454 3.49712 16.1228 3.50084C16.2969 3.50449 16.5216 3.4635 16.8744 3.29798C17.2179 3.13677 17.6276 2.85149 18.1492 2.48835L18.1493 2.48829C18.3185 2.37047 18.4995 2.24447 18.6938 2.11184C19.429 1.61004 20.3142 1.04745 21.2381 0.758443C22.9932 0.209369 24.8507 0.736813 25.9964 1.25822C26.3451 1.36045 26.5981 1.66586 26.5981 2.02673C26.5981 2.47132 26.214 2.83173 25.7403 2.83173C25.5594 2.83173 25.3915 2.77915 25.2532 2.68938Z" fill="#042D48"/>
<path d="M4 17.9231C4.31945 18.6015 4.63218 19.8194 4.96325 21.1087C5.74146 24.1404 6.62356 27.5766 8.59271 28.7087C9.26443 29.0948 10.0276 29.1935 10.7999 28.9938C12.8422 28.4664 13.5341 26.2019 14.1443 24.2039C14.7912 22.0869 15.2605 20.7973 16.308 20.7852C17.3553 20.7973 17.8249 22.0869 18.4716 24.2039C19.082 26.2019 19.7736 28.4664 21.8159 28.9938C22.0759 29.061 22.3349 29.0945 22.5897 29.0945C23.0917 29.0945 23.5778 28.9648 24.0231 28.7087C25.9923 27.5763 26.8746 24.1404 27.6528 21.1087C27.9837 19.8194 28.2964 18.6015 28.6158 17.9231C28.8185 17.4926 29.035 17.0575 29.2446 16.6365C30.6232 13.8671 32.0489 11.0033 30.6519 7.38762C30.1596 6.09452 29.7477 5.72438 29.2446 5" stroke="#042D48" stroke-width="1.61" stroke-linecap="round" stroke-linejoin="round"/>
</svg>
