<svg width="50" height="50" viewBox="0 0 50 50" fill="none" xmlns="http://www.w3.org/2000/svg">
<rect width="50" height="50" rx="10" fill="white"/>
<path d="M25.1165 8C24.6684 8 24.3052 8.36318 24.3052 8.81129V11.8536C24.3052 12.3017 24.6684 12.6648 25.1165 12.6648C25.5646 12.6648 25.9277 12.3017 25.9277 11.8536V8.81129C25.9277 8.36318 25.5645 8 25.1165 8Z" fill="#042D48"/>
<path d="M37.1376 12.9791C36.8207 12.6624 36.3071 12.6624 35.9901 12.9791L34.4764 14.4929C34.1596 14.8097 34.1596 15.3233 34.4764 15.6403C34.6348 15.7987 34.8424 15.8779 35.0501 15.8779C35.2577 15.8779 35.4652 15.7987 35.6238 15.6403L37.1376 14.1266C37.4544 13.8097 37.4544 13.2961 37.1376 12.9791Z" fill="#042D48"/>
<path d="M15.7562 14.4929L14.2423 12.9791C13.9255 12.6624 13.4118 12.6624 13.095 12.9791C12.7782 13.2961 12.7783 13.8097 13.095 14.1266L14.6089 15.6403C14.7673 15.7987 14.975 15.8779 15.1826 15.8779C15.3901 15.8779 15.5979 15.7987 15.7562 15.6403C16.073 15.3233 16.0729 14.8098 15.7562 14.4929Z" fill="#042D48"/>
<path d="M33.5828 25C33.5828 29.7398 29.7405 33.5821 25.0007 33.5821C20.2609 33.5821 16.4186 29.7398 16.4186 25C16.4186 20.2602 20.2609 16.4179 25.0007 16.4179C29.7405 16.4179 33.5828 20.2602 33.5828 25Z" stroke="#042D48" stroke-width="1.05"/>
<mask id="path-6-inside-1" fill="white">
<path fill-rule="evenodd" clip-rule="evenodd" d="M9.11033 23.4505C12.9321 18.5503 18.6871 15.7382 24.8949 15.7382C29.5083 15.7382 34.01 17.3459 37.5718 20.2662C37.796 20.45 37.8287 20.7808 37.6449 21.0051C37.461 21.2293 37.1302 21.262 36.906 21.0782C33.5323 18.3121 29.2661 16.7882 24.8949 16.7882C19.0111 16.7882 13.5613 19.4508 9.93829 24.0962L9.52672 23.7752L9.93828 24.0962C9.35724 24.8412 9.35723 25.8808 9.9383 26.6259C13.5613 31.2713 19.0111 33.9339 24.8949 33.9339C30.7786 33.9339 36.2284 31.2714 39.8515 26.6259C40.4326 25.8807 40.4326 24.8411 39.8516 24.0962C39.6733 23.8675 39.714 23.5376 39.9427 23.3593C40.1713 23.181 40.5012 23.2218 40.6795 23.4504C41.5567 24.575 41.5566 26.1468 40.6796 27.2716L40.6795 27.2717C36.8576 32.1718 31.1026 34.9839 24.8949 34.9839C18.6871 34.9839 12.9321 32.1718 9.11032 27.2716L9.11032 27.2716C8.23323 26.147 8.23322 24.5751 9.11033 23.4505Z"/>
</mask>
<path fill-rule="evenodd" clip-rule="evenodd" d="M9.11033 23.4505C12.9321 18.5503 18.6871 15.7382 24.8949 15.7382C29.5083 15.7382 34.01 17.3459 37.5718 20.2662C37.796 20.45 37.8287 20.7808 37.6449 21.0051C37.461 21.2293 37.1302 21.262 36.906 21.0782C33.5323 18.3121 29.2661 16.7882 24.8949 16.7882C19.0111 16.7882 13.5613 19.4508 9.93829 24.0962L9.52672 23.7752L9.93828 24.0962C9.35724 24.8412 9.35723 25.8808 9.9383 26.6259C13.5613 31.2713 19.0111 33.9339 24.8949 33.9339C30.7786 33.9339 36.2284 31.2714 39.8515 26.6259C40.4326 25.8807 40.4326 24.8411 39.8516 24.0962C39.6733 23.8675 39.714 23.5376 39.9427 23.3593C40.1713 23.181 40.5012 23.2218 40.6795 23.4504C41.5567 24.575 41.5566 26.1468 40.6796 27.2716L40.6795 27.2717C36.8576 32.1718 31.1026 34.9839 24.8949 34.9839C18.6871 34.9839 12.9321 32.1718 9.11032 27.2716L9.11032 27.2716C8.23323 26.147 8.23322 24.5751 9.11033 23.4505Z" fill="#042D48"/>
<path d="M9.48371 22.9717C9.2193 22.7655 8.83779 22.8127 8.63157 23.0771C8.42536 23.3415 8.47253 23.723 8.73694 23.9292L9.48371 22.9717ZM9.15092 24.2521C9.41533 24.4583 9.79684 24.4112 10.0031 24.1467C10.2093 23.8823 10.1621 23.5008 9.89769 23.2946L9.15092 24.2521ZM9.89769 23.2946L9.48371 22.9717L8.73694 23.9292L9.15092 24.2521L9.89769 23.2946ZM8.73694 23.9292L9.15092 24.2521L9.89769 23.2946L9.48371 22.9717L8.73694 23.9292ZM9.11033 23.4505L10.0678 24.1973L10.0678 24.1973L9.11033 23.4505ZM37.5718 20.2662L38.3417 19.3272V19.3272L37.5718 20.2662ZM37.6449 21.0051L38.5839 21.775L38.5839 21.7749L37.6449 21.0051ZM36.906 21.0782L36.1361 22.0172L36.1361 22.0172L36.906 21.0782ZM9.93829 24.0962L9.19151 25.0537C9.72033 25.4662 10.4834 25.3718 10.8958 24.843L9.93829 24.0962ZM10.2735 22.8177C9.74467 22.4053 8.98164 22.4997 8.56921 23.0285C8.15678 23.5573 8.25113 24.3203 8.77994 24.7327L10.2735 22.8177ZM9.93828 24.0962L10.8958 24.843C11.0938 24.5891 11.1829 24.2668 11.1434 23.9472C11.1039 23.6276 10.939 23.3368 10.6851 23.1387L9.93828 24.0962ZM9.9383 26.6259L8.98077 27.3727L8.98079 27.3727L9.9383 26.6259ZM39.8515 26.6259L40.809 27.3727L40.8091 27.3726L39.8515 26.6259ZM39.8516 24.0962L40.8091 23.3494L40.8091 23.3494L39.8516 24.0962ZM40.6795 23.4504L41.637 22.7036V22.7036L40.6795 23.4504ZM40.6796 27.2716L41.635 28.021L41.6371 28.0183L40.6796 27.2716ZM40.6795 27.2717L39.7241 26.5223L39.722 26.5249L40.6795 27.2717ZM9.11032 27.2716L8.15008 28.0149L8.15282 28.0184L9.11032 27.2716ZM9.11032 27.2716L10.0706 26.5284L10.0678 26.5249L9.11032 27.2716ZM24.8949 14.5239C18.3124 14.5239 12.2044 17.5089 8.15282 22.7037L10.0678 24.1973C13.6598 19.5917 19.0617 16.9525 24.8949 16.9525V14.5239ZM38.3417 19.3272C34.5623 16.2285 29.7885 14.5239 24.8949 14.5239V16.9525C29.2282 16.9525 33.4576 18.4633 36.8019 21.2052L38.3417 19.3272ZM38.5839 21.7749C39.1929 21.0321 39.0845 19.9362 38.3417 19.3272L36.8019 21.2052C36.5075 20.9639 36.4645 20.5295 36.7059 20.2352L38.5839 21.7749ZM36.1361 22.0172C36.879 22.6262 37.9748 22.5178 38.5839 21.775L36.7059 20.2352C36.9472 19.9408 37.3815 19.8978 37.6759 20.1392L36.1361 22.0172ZM24.8949 18.0025C28.9859 18.0025 32.98 19.4295 36.1361 22.0172L37.6759 20.1392C34.0847 17.1947 29.5463 15.5739 24.8949 15.5739V18.0025ZM10.8958 24.843C14.2891 20.4922 19.3857 18.0025 24.8949 18.0025V15.5739C18.6364 15.5739 12.8336 18.4094 8.98078 23.3495L10.8958 24.843ZM8.77994 24.7327L9.19151 25.0537L10.6851 23.1387L10.2735 22.8177L8.77994 24.7327ZM10.6851 23.1387L10.2735 22.8177L8.77994 24.7327L9.19151 25.0537L10.6851 23.1387ZM10.8958 25.8792C10.6571 25.5731 10.6571 25.149 10.8958 24.843L8.98078 23.3495C8.05735 24.5335 8.05737 26.1886 8.98077 27.3727L10.8958 25.8792ZM24.8949 32.7196C19.3857 32.7196 14.2891 30.2299 10.8958 25.8791L8.98079 27.3727C12.8336 32.3127 18.6364 35.1482 24.8949 35.1482V32.7196ZM38.8941 25.8792C35.5006 30.2299 30.4039 32.7196 24.8949 32.7196V35.1482C31.1532 35.1482 36.9561 32.3128 40.809 27.3727L38.8941 25.8792ZM38.8941 24.8429C39.1327 25.1489 39.1328 25.5729 38.894 25.8793L40.8091 27.3726C41.7325 26.1885 41.7325 24.5334 40.8091 23.3494L38.8941 24.8429ZM39.1959 22.4018C38.4385 22.9926 38.3033 24.0855 38.8941 24.8429L40.8091 23.3494C41.0432 23.6496 40.9896 24.0827 40.6895 24.3168L39.1959 22.4018ZM41.637 22.7036C41.0463 21.9462 39.9534 21.8111 39.1959 22.4018L40.6895 24.3168C40.3893 24.5509 39.9561 24.4974 39.722 24.1972L41.637 22.7036ZM41.6371 28.0183C42.8564 26.4546 42.8566 24.2673 41.637 22.7036L39.722 24.1972C40.2567 24.8828 40.2568 25.8391 39.722 26.5249L41.6371 28.0183ZM41.635 28.021L41.635 28.021L39.7241 26.5222L39.7241 26.5223L41.635 28.021ZM24.8949 36.1982C31.4772 36.1982 37.5854 33.2133 41.637 28.0184L39.722 26.5249C36.1299 31.1304 30.7279 33.7696 24.8949 33.7696V36.1982ZM8.15282 28.0184C12.2044 33.2133 18.3124 36.1982 24.8949 36.1982V33.7696C19.0617 33.7696 13.6598 31.1304 10.0678 26.5249L8.15282 28.0184ZM8.15008 28.0149L8.15009 28.0149L10.0706 26.5284L10.0706 26.5284L8.15008 28.0149ZM8.15282 22.7037C6.93333 24.2673 6.93337 26.4548 8.15279 28.0184L10.0678 26.5249C9.53309 25.8392 9.53311 24.8829 10.0678 24.1973L8.15282 22.7037Z" fill="#042D48" mask="url(#path-6-inside-1)"/>
<path d="M28.195 25C28.195 26.7645 26.7645 28.195 25 28.195C23.2355 28.195 21.805 26.7645 21.805 25C21.805 23.2355 23.2355 21.805 25 21.805C26.7645 21.805 28.195 23.2355 28.195 25Z" stroke="#042D48" stroke-width="1.61"/>
</svg>
