<svg width="35" height="38" viewBox="0 0 35 38" fill="none" xmlns="http://www.w3.org/2000/svg">
<path d="M26.6004 6.32093C26.3048 6.6853 26.3704 7.21253 26.7472 7.49853C34.4702 13.36 34.474 24.6362 26.7472 30.5015C26.3706 30.7874 26.3045 31.3144 26.6004 31.6791C26.8961 32.0434 27.4413 32.107 27.818 31.821C36.4305 25.2839 36.4265 12.7128 27.818 6.17898C27.4413 5.89298 26.896 5.95656 26.6004 6.32093ZM25.303 9.65474C24.9318 9.36197 24.3856 9.41555 24.0828 9.77452C23.78 10.1334 23.8355 10.6618 24.2067 10.9546C29.5056 15.1348 29.4638 22.9677 24.1378 27.0992C23.7645 27.3888 23.704 27.9165 24.0039 28.2782C24.3036 28.6396 24.8494 28.6976 25.223 28.4077C31.4293 23.5936 31.4576 14.5105 25.303 9.65474ZM22.9701 13.6514C22.6314 13.3239 22.0823 13.3239 21.7437 13.6514C21.4051 13.9788 21.4049 14.5099 21.7437 14.8375C24.1224 17.1379 24.1228 20.8616 21.7437 23.1624C21.405 23.4899 21.405 24.0209 21.7437 24.3485C22.0823 24.676 22.6314 24.676 22.9701 24.3485C26.0266 21.3926 26.0271 16.6078 22.9701 13.6514Z" fill="#042D48"/>
<path fill-rule="evenodd" clip-rule="evenodd" d="M15.6504 0.403356C15.6107 0.338641 15.5607 0.27807 15.5003 0.223788C15.1583 -0.0838183 14.6153 -0.0729647 14.2875 0.24803C13.9598 0.569025 13.9713 1.07861 14.3134 1.38621C14.3584 1.42675 14.407 1.46175 14.4581 1.49124C15.7718 2.73702 18.5556 5.51787 19.1958 6.23972C19.7359 6.84881 19.9037 7.45659 19.8236 7.93131C19.7474 8.38219 19.4161 8.89712 18.553 9.28127C17.2999 9.83901 16.5242 10.2494 16.0155 10.6151C15.4608 11.0137 15.2207 11.362 15.0235 11.7326C14.8022 12.1485 14.7366 12.6433 14.7947 13.0967C14.8533 13.5535 15.0484 14.049 15.4451 14.4218C15.7066 14.6675 15.9247 14.9156 16.0021 15.15C16.0335 15.2451 16.0361 15.3228 16.0139 15.4021C15.9903 15.4864 15.921 15.6344 15.7073 15.8352C15.111 16.3954 14.5954 16.8497 14.1609 17.2274C14.0744 17.3026 13.9902 17.3755 13.9086 17.4462C13.5876 17.7243 13.3065 17.9678 13.0855 18.1755C12.6752 18.5609 12.4305 19.0729 12.4693 19.6609C12.5058 20.215 12.7864 20.7165 13.1655 21.1439C13.7506 21.8035 14.6865 22.5291 15.1194 22.8545C15.2029 22.9173 15.2654 23.0384 15.2252 23.2184C15.187 23.3892 15.0382 23.6412 14.6374 23.8085C14.054 24.0522 13.4995 24.3148 13.1183 24.673C12.9124 24.8664 12.7362 25.1056 12.6361 25.4035C12.5358 25.7019 12.5305 26.0035 12.5819 26.2932C12.5992 26.3907 12.6342 26.5385 12.6687 26.6844L12.6688 26.6845C12.6863 26.7587 12.7037 26.8323 12.7187 26.8986C12.7709 27.1304 12.8225 27.3907 12.8532 27.662C12.9172 28.2288 12.8754 28.7273 12.6746 29.0808C12.3705 29.6163 12.1405 29.8842 11.8846 30.078C11.6165 30.2809 11.268 30.4436 10.6386 30.6813C9.86261 30.8823 9.01667 30.8704 7.93284 30.8446L7.87999 30.8433C6.81976 30.818 5.58483 30.7886 4.19431 31.0251C2.87129 31.2502 1.64256 31.93 0.907174 33.062C0.217318 34.1239 0.0269212 35.4827 0.472186 37.0144C0.468763 37.1021 0.480688 37.1918 0.509729 37.2805C0.648961 37.7054 1.12889 37.944 1.58169 37.8133C2.03448 37.6826 2.28867 37.2322 2.14944 36.8073C2.11972 36.7166 2.07449 36.6344 2.0173 36.5624C1.68208 35.4103 1.86262 34.5466 2.25728 33.9391C2.69941 33.2586 3.4892 32.7782 4.46432 32.6123C5.70092 32.4019 6.8046 32.4282 7.88427 32.4539L7.89453 32.4542L7.92527 32.4549C8.96983 32.4798 10.0535 32.5056 11.0926 32.2266L11.1304 32.2165L11.1671 32.2027C11.8246 31.9556 12.3791 31.7229 12.8564 31.3616C13.3513 30.9869 13.7112 30.5157 14.0746 29.8759C14.5277 29.0781 14.5302 28.1642 14.453 27.4812C14.413 27.1276 14.3476 26.8037 14.2893 26.5448C14.2598 26.4136 14.2359 26.314 14.2169 26.2347C14.1934 26.1364 14.1774 26.0694 14.1672 26.0121C14.1598 25.9707 14.1595 25.9452 14.1601 25.9321C14.1604 25.9256 14.1611 25.9216 14.1614 25.9196L14.1617 25.9181L14.1622 25.9164L14.1635 25.9135C14.1639 25.9127 14.1645 25.9115 14.1653 25.91C14.1664 25.9083 14.1678 25.906 14.1697 25.9032C14.1768 25.8927 14.1917 25.8736 14.2207 25.8463C14.3639 25.7118 14.6614 25.5433 15.2578 25.2942C16.0887 24.9473 16.6324 24.3033 16.7964 23.5696C16.9584 22.8451 16.7328 22.0532 16.0868 21.5676C15.6458 21.236 14.8338 20.5985 14.3701 20.0756C14.1276 19.8022 14.0805 19.6263 14.0758 19.5549C14.0733 19.5175 14.0738 19.456 14.1879 19.3488C14.3829 19.1656 14.6307 18.9509 14.9475 18.6764L14.9476 18.6763L14.9478 18.6761C15.0326 18.6027 15.1222 18.525 15.2172 18.4425C15.659 18.0584 16.192 17.5889 16.8097 17.0085C17.186 16.655 17.4444 16.2641 17.5642 15.8364C17.6854 15.4038 17.6469 14.9965 17.5309 14.6451C17.3134 13.9864 16.8105 13.4955 16.5476 13.2485C16.4809 13.1858 16.4139 13.0655 16.3917 12.892C16.369 12.7152 16.404 12.5655 16.4449 12.4888C16.5466 12.2976 16.6341 12.1531 16.9552 11.9224C17.3221 11.6587 17.9701 11.303 19.2077 10.7522C20.4421 10.2027 21.225 9.30116 21.4111 8.19939C21.5931 7.12146 21.171 6.04046 20.4003 5.17144C19.7272 4.41257 17.0097 1.69818 15.6504 0.403356Z" fill="#042D48"/>
</svg>
