<svg width="39" height="39" viewBox="0 0 39 39" fill="none" xmlns="http://www.w3.org/2000/svg">
<path d="M25.2562 27.1298C24.4105 25.1298 22.4615 24.1298 19.5987 24.1298C16.5159 24.1298 14.8612 25.1792 13.9413 27.1298C12.9981 29.1298 13.9414 31.6294 15.8271 33.6298C16.7699 34.6299 17.2127 35.0271 17.8 35.5609C18.485 36.1836 18.6555 36.3393 18.6555 36.9621C18.6555 37.5849 18.9381 38.1298 19.5987 38.1298C20.2593 38.1298 20.5413 37.62 20.5413 36.9621C20.5413 36.4172 20.3985 36.2484 21.1764 35.5609C22.0573 34.7824 22.6453 34.3989 23.3704 33.6298C25.2562 31.6298 26.0715 29.0581 25.2562 27.1298Z" stroke="#042D48" stroke-width="1.4"/>
<path fill-rule="evenodd" clip-rule="evenodd" d="M7.65541 0.0370606C8.45304 -0.0604942 9.3445 0.0290911 10.3862 0.370889C13.1622 1.28178 14.0144 4.03021 13.9221 5.95658C13.8828 6.77715 13.6024 8.40102 12.0361 9.7222C11.549 10.1332 11.294 10.5235 11.1633 10.8205C11.0974 10.9703 11.0624 11.0978 11.0452 11.1946C11.0367 11.243 11.0328 11.2824 11.0314 11.3119C11.0308 11.3265 11.0307 11.338 11.031 11.3464L11.0314 11.3559L11.0316 11.3585C11.0316 11.3591 11.0317 11.3593 11.0317 11.3593C11.0748 11.7443 11.2065 12.0117 11.4226 12.4203L11.4412 12.4553L11.4412 12.4554C11.6578 12.8647 11.9292 13.3774 12.1112 14.1415C12.324 15.0348 12.3948 16.0783 12.0503 17.1424C11.7025 18.2166 10.9534 19.2435 9.64506 20.1296C7.88142 21.3242 4.91005 21.4241 2.97404 19.5376L2.99911 19.5119C2.77467 19.2515 2.78295 18.858 3.02745 18.6072C3.27189 18.3564 3.66485 18.3381 3.93096 18.5556L3.95108 18.535C5.34962 19.8977 7.5719 19.843 8.85994 18.9705C9.94646 18.2346 10.4794 17.4492 10.7183 16.7112C10.9606 15.9631 10.9228 15.1944 10.7493 14.4658C10.6088 13.8759 10.4068 13.4941 10.1949 13.0935L10.1851 13.0749L10.1847 13.0743L10.1847 13.0743C10.0514 12.8221 9.90634 12.5479 9.79635 12.22C9.24521 12.4833 8.92287 12.8994 8.83293 13.0764L8.80208 13.0607C8.59048 13.3576 8.17914 13.4312 7.87731 13.2241C7.62524 13.0512 7.52839 12.7365 7.62029 12.4602L7.58482 12.4422C7.82836 11.9629 8.53296 11.1151 9.70848 10.7553C9.71313 10.737 9.718 10.7185 9.72311 10.6999C8.73009 9.9701 8.3458 8.93386 8.27508 8.40004L8.31977 8.39412C8.30886 8.06023 8.54873 7.76313 8.88721 7.71075C9.23552 7.65685 9.56264 7.88154 9.64197 8.21896L9.66295 8.21618C9.6908 8.42639 9.87815 8.98193 10.3794 9.4309C10.5799 9.17194 10.8284 8.90942 11.1335 8.65208C12.294 7.67314 12.495 6.49 12.5237 5.8896C12.5998 4.30082 11.8892 2.33754 9.94967 1.70111C9.06803 1.41182 8.38501 1.35826 7.82537 1.42671C7.26604 1.49512 6.78605 1.69066 6.31317 1.96223C5.31695 2.53433 3.46807 3.89653 2.33387 6.95957C1.04417 10.4425 1.05583 13.4663 2.58407 16.7075L2.55241 16.7224C2.55537 16.7287 2.55825 16.7351 2.56104 16.7415C2.70811 17.0812 2.55198 17.4758 2.21232 17.6228C1.87937 17.767 1.49366 17.6198 1.34002 17.294L1.31778 17.3045C-0.389806 13.683 -0.383015 10.2651 1.02099 6.47342C2.2949 3.03306 4.4081 1.44183 5.61597 0.748177C6.19745 0.41425 6.85749 0.134652 7.65541 0.0370606Z" fill="#042D48"/>
<path fill-rule="evenodd" clip-rule="evenodd" d="M16.1952 13.7808C15.5299 11.9291 13.998 10.844 12.8815 10.4797L12.8713 10.5108C12.5381 10.423 12.1875 10.6038 12.0699 10.9343C11.9482 11.2762 12.1208 11.6514 12.4563 11.7829L12.4472 11.8107C13.2235 12.0639 14.382 12.8746 14.8776 14.2541C15.2131 15.1879 15.1232 15.9636 14.7744 16.8121C14.4981 17.4843 14.0836 18.1542 13.5823 18.9645C13.4054 19.2503 13.2178 19.5536 13.0216 19.8805C12.9252 20.0412 12.8229 20.2098 12.7168 20.3845C12.1346 21.3436 11.4402 22.4875 10.9988 23.5241C10.7386 24.1352 10.5343 24.7789 10.5194 25.3719C10.5038 25.9938 10.7018 26.6351 11.3187 27.0463L11.3392 27.0155C11.6346 27.1916 12.0208 27.1155 12.2256 26.8312C12.44 26.5337 12.3751 26.1197 12.0818 25.9017L12.0953 25.8815C11.9941 25.814 11.9114 25.7064 11.919 25.4071C11.9272 25.079 12.0499 24.6293 12.2869 24.0725C12.685 23.1376 13.3153 22.0981 13.9 21.1339L13.9002 21.1335L13.9004 21.1332C14.0098 20.9527 14.1177 20.7749 14.2221 20.6008C14.3873 20.3255 14.5555 20.0538 14.7217 19.7854C15.2435 18.9429 15.7453 18.1326 16.0693 17.3443C16.5216 16.2441 16.6709 15.105 16.1952 13.7808Z" fill="#042D48"/>
<path fill-rule="evenodd" clip-rule="evenodd" d="M30.9457 0.0370605C30.148 -0.0604941 29.2566 0.0290912 28.2149 0.370889C25.4389 1.28178 24.5867 4.03021 24.679 5.95658C24.7183 6.77715 24.9987 8.40102 26.5649 9.7222C27.0521 10.1332 27.3071 10.5235 27.4378 10.8205C27.5037 10.9703 27.5387 11.0978 27.5558 11.1946C27.5644 11.243 27.5683 11.2824 27.5696 11.3119C27.5703 11.3265 27.5703 11.338 27.5701 11.3464L27.5697 11.3559L27.5695 11.3585L27.5694 11.3592L27.5694 11.3593C27.5263 11.7443 27.3946 12.0117 27.1784 12.4203L27.1599 12.4553C26.9432 12.8647 26.6718 13.3774 26.4899 14.1415C26.2771 15.0348 26.2063 16.0783 26.5508 17.1424C26.8986 18.2166 27.6477 19.2435 28.956 20.1296C30.7196 21.3242 33.691 21.4241 35.627 19.5376L35.6014 19.5113C35.8007 19.2514 35.7842 18.8778 35.5489 18.6364C35.3136 18.395 34.9406 18.3689 34.6757 18.5614L34.65 18.535C33.2515 19.8977 31.0292 19.843 29.7411 18.9705C28.6546 18.2346 28.1217 17.4492 27.8827 16.7112C27.6405 15.9631 27.6782 15.1944 27.8518 14.4658C27.9923 13.8759 28.1942 13.4941 28.4062 13.0935L28.416 13.0749L28.4163 13.0743C28.5497 12.8221 28.6947 12.5479 28.8047 12.22C29.3558 12.4833 29.6782 12.8994 29.7681 13.0764L29.7956 13.0624C29.8126 13.1016 29.8336 13.1398 29.8586 13.1763C30.068 13.4815 30.4852 13.5592 30.7904 13.3497C31.083 13.149 31.1665 12.7573 30.9884 12.4564L31.0162 12.4422C30.7727 11.9629 30.0681 11.1151 28.8926 10.7553C28.8879 10.737 28.8831 10.7185 28.878 10.6999C29.871 9.97008 30.2552 8.93386 30.326 8.40004L30.2958 8.39605C30.2978 8.38602 30.2996 8.3759 30.3012 8.36569C30.3578 7.99991 30.1072 7.65749 29.7414 7.60089C29.3756 7.54428 29.0332 7.79492 28.9766 8.1607C28.9735 8.18069 28.9713 8.20061 28.97 8.22042L28.9381 8.21618C28.9102 8.42638 28.7229 8.98191 28.2217 9.43087C28.0211 9.17193 27.7727 8.90941 27.4676 8.65208C26.3071 7.67314 26.1061 6.49 26.0774 5.8896C26.0013 4.30082 26.7118 2.33754 28.6514 1.70111C29.533 1.41182 30.2161 1.35826 30.7757 1.42671C31.335 1.49512 31.815 1.69066 32.2879 1.96223C33.2841 2.53433 35.133 3.89653 36.2672 6.95957C37.5569 10.4425 37.5452 13.4663 36.017 16.7075L36.0461 16.7212C36.0431 16.7276 36.0401 16.7342 36.0372 16.7408C35.8902 17.0804 36.0463 17.475 36.386 17.6221C36.7191 17.7663 37.105 17.6189 37.2585 17.2928L37.2833 17.3045C38.9909 13.683 38.9841 10.2651 37.5801 6.47342C36.3062 3.03306 34.193 1.44183 32.9851 0.748177C32.4036 0.41425 31.7436 0.134652 30.9457 0.0370605Z" fill="#042D48"/>
<path fill-rule="evenodd" clip-rule="evenodd" d="M26.1529 11.7772L26.1435 11.7805L26.1533 11.8107C25.3771 12.0639 24.2186 12.8746 23.723 14.2542C23.3875 15.1879 23.4774 15.9636 23.8262 16.8121C24.1025 17.4843 24.517 18.1542 25.0183 18.9645C25.1952 19.2503 25.3828 19.5536 25.579 19.8806C25.6754 20.0412 25.7777 20.2098 25.8838 20.3845C26.466 21.3436 27.1604 22.4875 27.6018 23.5241C27.862 24.1352 28.0663 24.7789 28.0812 25.3719C28.0968 25.9938 27.8988 26.6351 27.2819 27.0464L27.2654 27.0216C27.2571 27.0282 27.2486 27.0347 27.2398 27.041C26.9395 27.2574 26.5207 27.1893 26.3043 26.889C26.0879 26.5887 26.156 26.1699 26.4563 25.9535C26.4784 25.9375 26.5012 25.9231 26.5245 25.9102L26.5053 25.8815C26.6065 25.814 26.6891 25.7064 26.6816 25.4071C26.6734 25.079 26.5507 24.6293 26.3137 24.0725C25.9156 23.1376 25.2853 22.0981 24.7006 21.1339L24.7003 21.1335L24.7002 21.1332C24.5908 20.9527 24.4829 20.7749 24.3785 20.6008C24.2133 20.3255 24.0451 20.0538 23.8789 19.7854L23.8788 19.7854C23.3571 18.9429 22.8553 18.1326 22.5313 17.3443C22.079 16.2441 21.9297 15.105 22.4054 13.7808C23.0707 11.9291 24.6026 10.844 25.7191 10.4797L25.7278 10.5063C26.0698 10.3989 26.4384 10.5805 26.5596 10.9211C26.6837 11.2698 26.5016 11.6531 26.1529 11.7772Z" fill="#042D48"/>
</svg>
