<svg width="50" height="51" viewBox="0 0 50 51" fill="none" xmlns="http://www.w3.org/2000/svg">
<rect y="0.0625" width="50" height="50" rx="10" fill="white"/>
<path fill-rule="evenodd" clip-rule="evenodd" d="M33.7247 36.8239C33.7868 36.8792 34 37.0755 34 37.3901C34 37.395 34 37.3999 34 37.4049C34.0001 37.586 34.0003 37.8609 33.8694 38.0987C33.7314 38.3496 33.485 38.4849 33.3895 38.5373C33.3804 38.5423 33.3727 38.5466 33.3666 38.5501C33.3662 38.5503 33.3643 38.5514 33.3611 38.5542C33.3579 38.5571 33.3523 38.5625 33.3452 38.5717C33.3309 38.5901 33.3083 38.6263 33.2872 38.69C33.2437 38.8211 33.213 39.0495 33.2594 39.4095C33.3205 39.883 33.3017 40.2784 33.1683 40.623C33.03 40.98 32.7973 41.2059 32.6048 41.3716C32.3699 41.5738 32.0419 41.6512 31.834 41.6903C31.5852 41.7371 31.2997 41.7627 31.0167 41.7752C30.4495 41.8002 29.8153 41.7756 29.3451 41.725C28.8641 41.6732 28.0113 41.5 27.2322 41.3119C26.9348 41.2401 26.6405 41.1642 26.3725 41.0893C26.4948 41.2958 26.6181 41.4879 26.7258 41.6269C26.9254 41.8846 27.2345 42.24 27.5602 42.5765C27.8932 42.9205 28.2079 43.2072 28.4207 43.3538C28.5648 43.453 28.7152 43.5801 28.818 43.7452C28.9322 43.9285 28.9992 44.1861 28.8869 44.4542C28.788 44.6899 28.5975 44.8162 28.4824 44.8756C28.3591 44.9393 28.2346 44.9725 28.1367 44.9894L28.075 45H23.1266C22.8175 45 22.5235 44.9138 22.3019 44.7151C22.0922 44.5271 22 44.2831 22 44.0674C22 43.8586 22.0507 43.2442 22.2255 42.191C22.2347 42.1351 22.2445 42.0755 22.2549 42.0127C22.3637 41.351 22.5321 40.3276 22.7912 39.3294C22.9332 38.7822 23.1062 38.2271 23.3186 37.7323C23.527 37.2469 23.7932 36.7716 24.1442 36.4228C24.3534 36.2149 24.7229 35.8977 25.1967 35.6159C25.6672 35.3361 26.2819 35.0666 26.9721 35.0071C27.1871 34.9886 27.4493 35.0084 27.7052 35.0396C27.9736 35.0724 28.2834 35.1241 28.6131 35.1881C29.2732 35.3164 30.0412 35.4997 30.771 35.6987C31.4988 35.8972 32.2052 36.1159 32.738 36.3173C33.0007 36.4166 33.2447 36.5203 33.4328 36.6242C33.5241 36.6746 33.6314 36.7408 33.7247 36.8239ZM27.5275 36.3334C27.2919 36.3047 27.1546 36.3014 27.0981 36.3063C26.7026 36.3403 26.2998 36.5026 25.9358 36.7191C25.5751 36.9336 25.2931 37.1771 25.1489 37.3204C24.9723 37.4959 24.7846 37.7967 24.6022 38.2215C24.4239 38.6369 24.2694 39.126 24.1362 39.6392C23.8921 40.5797 23.7324 41.5492 23.6228 42.2149C23.6126 42.2769 23.6028 42.3362 23.5934 42.3926C23.4945 42.989 23.4403 43.4183 23.4122 43.6954H26.7752C26.6944 43.6161 26.6146 43.5356 26.5372 43.4556C26.1843 43.0911 25.842 42.6989 25.6073 42.3959C25.2138 41.8879 24.7399 40.9725 24.5595 40.6L24.5289 40.5367L24.5131 40.4688C24.4921 40.3781 24.4774 40.2593 24.493 40.1295C24.5079 40.0059 24.5594 39.8024 24.7411 39.6316C24.9447 39.4402 25.2056 39.3873 25.4267 39.4052C25.6257 39.4213 25.8066 39.493 25.9565 39.5704C26.0254 39.606 26.2164 39.6773 26.5337 39.7716C26.8325 39.8605 27.1969 39.9566 27.5759 40.0482C28.3456 40.234 29.1213 40.3879 29.5022 40.4289C29.9006 40.4717 30.4606 40.4938 30.9519 40.4721C31.1983 40.4612 31.4081 40.4401 31.563 40.411C31.6438 40.3958 31.6886 40.3821 31.7083 40.3757C31.8118 40.2828 31.8454 40.233 31.8675 40.1758C31.8969 40.0999 31.9324 39.9345 31.8849 39.567C31.7804 38.7574 31.9207 38.0328 32.4124 37.6025C32.3549 37.579 32.2916 37.5542 32.2225 37.5281C31.7489 37.349 31.0907 37.144 30.386 36.9519C29.6835 36.7602 28.9512 36.5859 28.3334 36.4658C28.0242 36.4057 27.7505 36.3606 27.5275 36.3334Z" fill="#042D48"/>
<path fill-rule="evenodd" clip-rule="evenodd" d="M19.7542 10.1366C21.8583 9.79867 24.3585 10.1516 25.5865 10.5038L25.584 10.5125C25.8941 10.6363 26.0674 10.9778 25.9753 11.3076C25.8768 11.6604 25.512 11.8662 25.1605 11.7674C25.1353 11.7603 25.1109 11.7518 25.0872 11.7421C23.9505 11.4423 21.758 11.1584 19.9631 11.4467C17.5293 11.8375 15.7829 12.3088 13.8317 13.9873C11.8385 15.7021 10.6941 17.7099 10.2179 18.6659C10.0064 19.0903 9.62701 20.1663 9.43661 21.504C9.24656 22.8392 9.25546 24.3633 9.75054 25.7185C10.2873 27.1878 10.9237 28.6135 11.4937 29.8572C11.5857 30.0579 11.6765 30.2549 11.7652 30.4474L11.7653 30.4476C12.2169 31.4278 12.6136 32.2889 12.832 32.9025C12.9112 33.1253 13.0126 33.3653 13.1217 33.6237C13.6223 34.8092 14.2873 36.3839 13.7431 38.4777C13.1604 40.7198 12.4556 42.3337 10.9551 43.6303C12.3514 43.7081 16.1062 43.663 17.844 43.6296C17.846 43.6288 17.8483 43.6278 17.8507 43.6265C17.8557 43.6239 17.8596 43.621 17.8627 43.6179C17.8652 43.6154 17.8704 43.6098 17.8767 43.5971L17.8854 43.6014C18.0898 43.3041 18.4948 43.2252 18.7955 43.4262C19.0496 43.596 19.1488 43.9118 19.0562 44.189L19.0591 44.1905C19.0553 44.198 19.0515 44.2055 19.0477 44.2129C19.0303 44.2588 19.0077 44.3034 18.9794 44.346C18.9532 44.3855 18.9235 44.4213 18.891 44.4533C18.5798 44.8379 18.1406 44.9535 17.8804 44.9559C16.1657 44.989 12.341 45.0363 10.8814 44.955C10.4901 44.9331 10.1489 44.8724 9.88065 44.7438C9.5935 44.6061 9.31673 44.3463 9.27689 43.9415C9.2431 43.5981 9.40339 43.3235 9.51471 43.1722C9.63523 43.0084 9.78441 42.8721 9.91633 42.7718C11.2385 41.7072 11.8835 40.3763 12.464 38.1428C12.8849 36.5236 12.4299 35.4262 11.949 34.2666C11.8253 33.9681 11.6998 33.6654 11.5871 33.3487C11.3908 32.797 11.0267 32.0065 10.5739 31.0231C10.4835 30.8269 10.3896 30.6229 10.2928 30.4117C9.7204 29.1627 9.06539 27.697 8.50945 26.1752C7.91179 24.5392 7.92068 22.773 8.128 21.3164C8.33495 19.8624 8.75024 18.6452 9.03552 18.0725C9.55266 17.0345 10.7924 14.8546 12.9715 12.98C15.1926 11.0691 17.221 10.5434 19.7542 10.1366Z" fill="#042D48"/>
<path fill-rule="evenodd" clip-rule="evenodd" d="M20.2483 26.2755L20.3259 26.3879C21.8048 28.5277 24.1558 28.3177 25.1616 27.9279L25.1626 27.9307C25.167 27.9293 25.1714 27.9279 25.1758 27.9266C25.5178 27.8242 25.8753 28.0276 25.9744 28.381C26.0734 28.7344 25.8766 29.1039 25.5346 29.2063C25.5295 29.2078 25.5244 29.2093 25.5193 29.2107C24.1814 29.6875 21.1892 29.9292 19.2769 27.1623C18.1806 25.5762 17.6854 24.8642 17.3581 24.5259C17.2141 24.3771 17.1545 24.358 17.136 24.3522C17.091 24.338 17.0325 24.3324 16.7933 24.3324C16.3591 24.3324 15.2892 24.8465 15.2892 26.7751C15.2892 28.9198 15.7059 30.0387 16.3896 30.7453C16.7854 31.1544 17.2814 31.5638 17.7695 31.8665C18.2792 32.1825 18.6917 32.3267 18.9419 32.3267C18.9695 32.3267 18.9902 32.325 19.0052 32.3228C19.0131 32.2676 19.0123 32.1677 18.9789 32.0201C18.9454 31.8714 18.8843 31.6986 18.7951 31.5143C18.5613 31.031 18.5259 30.4506 18.8091 29.9638C19.0992 29.4651 19.6328 29.2178 20.2311 29.2178C20.6405 29.2178 21.0704 29.3964 21.4415 29.6427C21.8258 29.8978 22.2063 30.2641 22.5168 30.7243C23.147 31.6581 23.4912 32.986 22.9913 34.5359C22.2952 36.6943 20.6817 40.8021 19.9667 42.5757L19.9593 42.5725C19.9565 42.5798 19.9537 42.5871 19.9507 42.5944C19.8114 42.933 19.4328 43.0907 19.1052 42.9467C18.7776 42.8027 18.625 42.4115 18.7643 42.0729C18.7771 42.042 18.7918 42.0126 18.8083 41.9848C19.5399 40.167 21.0991 36.1893 21.7683 34.1146C22.1279 32.9997 21.8782 32.107 21.4594 31.4864C21.2454 31.1694 20.9876 30.925 20.7448 30.7637C20.4885 30.5937 20.3022 30.5502 20.2311 30.5502C19.9719 30.5502 19.9179 30.6435 19.914 30.6502L19.9139 30.6504C19.9038 30.6677 19.8684 30.7535 19.9482 30.9184C20.1877 31.4135 20.3626 32.0107 20.2761 32.5472C20.2299 32.8335 20.1027 33.1324 19.8419 33.3544C19.5829 33.5749 19.2632 33.6591 18.9419 33.6591C18.3327 33.6591 17.6709 33.3591 17.1062 33.009C16.52 32.6454 15.9416 32.1666 15.478 31.6874C14.4428 30.6176 14 29.0717 14 26.7751C14 24.2625 15.5085 23.0001 16.7933 23.0001L16.8269 23C17.0142 22.9997 17.2628 22.9993 17.5114 23.0775C17.8019 23.1689 18.0377 23.344 18.2697 23.5838C18.6839 24.0118 19.2448 24.8236 20.2483 26.2755ZM19.0392 32.3145C19.0393 32.3146 19.0385 32.315 19.0368 32.3156L19.0386 32.3147L19.0392 32.3145Z" fill="#042D48"/>
<path fill-rule="evenodd" clip-rule="evenodd" d="M27.6305 12.2661C27.6534 12.2751 27.6764 12.2828 27.6996 12.2892C28.4316 12.5831 29.5515 13.0788 30.6256 13.649C31.7701 14.2565 32.7665 14.8993 33.2366 15.4314C33.9044 16.1874 34.544 17.0807 35.0134 17.9872C35.4871 18.9021 35.7622 19.7818 35.7622 20.5241C35.7622 21.3688 35.6669 22.2931 35.5351 23.052C35.4693 23.4312 35.3962 23.7589 35.325 24.0079C35.2604 24.2335 35.2127 24.3379 35.2 24.3656C35.1968 24.3726 35.1958 24.3747 35.1974 24.3726C34.9694 24.6737 34.8949 25.0478 34.8669 25.3085C34.8368 25.5879 34.8486 25.856 34.8707 26.0318L34.8737 26.0555L34.8785 26.0791C35.0417 26.8871 35.4639 28.7914 35.8096 29.6472C36.1361 30.4557 36.4892 31.1959 36.629 31.4728L36.6431 31.5007L36.6598 31.5272C36.6617 31.5302 36.6646 31.5357 36.6672 31.5424C36.6375 31.5628 36.5728 31.598 36.4498 31.6312C36.176 31.7052 36.0175 31.7496 35.9299 31.7759L35.9283 31.7764C35.8975 31.7856 35.84 31.8029 35.7909 31.8239L35.7899 31.8244C35.7872 31.8255 35.7815 31.8279 35.7734 31.8316C35.503 31.9106 35.2408 32.0487 35.0256 32.1922C34.7925 32.3475 34.5552 32.5488 34.3955 32.7652C34.205 33.0236 34.1407 33.2753 34.1008 33.6463C33.9989 33.6236 33.8799 33.5928 33.7362 33.5556C33.5314 33.5025 33.2863 33.439 33.0361 33.3943L32.9348 33.3766C32.5823 33.3151 31.7173 33.1644 30.8319 32.9415C30.337 32.817 29.8535 32.6742 29.4597 32.5186C29.0342 32.3504 28.8242 32.2086 28.7625 32.1365C28.4343 31.7523 28.4524 31.4902 28.4914 31.341C28.5429 31.1442 28.6769 30.9985 28.713 30.9646C29.0262 30.6699 29.4346 30.569 30.0881 30.7308C30.444 30.819 31.0571 31.0389 31.6888 31.2678L31.7421 31.2871C32.0298 31.3914 32.3145 31.4946 32.5588 31.5784C32.8051 31.663 33.0541 31.7435 33.2301 31.7784C34.0603 31.9429 34.7227 31.9199 35.1925 31.636C35.7317 31.3101 35.8219 30.7764 35.787 30.4246C35.7657 30.2095 35.6562 30.0284 35.599 29.9387C35.5251 29.8227 35.4313 29.701 35.3323 29.5822C35.133 29.343 34.8702 29.0648 34.5929 28.7835C34.2551 28.4409 33.8633 28.0619 33.5148 27.7246C33.3012 27.5179 33.1038 27.3269 32.945 27.1697C32.7493 26.9759 32.5761 26.7886 32.3942 26.592C32.3013 26.4916 32.206 26.3886 32.1045 26.2812C31.8154 25.9755 31.4984 25.6599 31.1158 25.3652C30.8044 25.1254 30.2972 24.9958 29.7761 25.0329C29.2193 25.0725 28.5901 25.3031 28.031 25.8568L27.1473 26.732L27.1573 26.742C26.9371 26.9985 26.9478 27.3837 27.1911 27.6278C27.4482 27.8858 27.8679 27.8885 28.1284 27.6338C28.1601 27.6028 28.1881 27.5693 28.2122 27.534L28.9683 26.7851C29.2929 26.4637 29.619 26.3603 29.8711 26.3424C30.1153 26.325 30.2643 26.3866 30.2962 26.3998C30.3019 26.4021 30.3039 26.403 30.302 26.4015C30.6038 26.634 30.8658 26.8918 31.1369 27.1786C31.2183 27.2647 31.3033 27.3565 31.3914 27.4516C31.5845 27.6602 31.7921 27.8845 32.0077 28.098C32.1909 28.2794 32.3981 28.4798 32.6156 28.6901C32.951 29.0144 33.3108 29.3623 33.6445 29.7008C33.9147 29.9748 34.1465 30.2216 34.3098 30.4177C34.3504 30.4664 34.3842 30.509 34.4118 30.5456C34.2847 30.5734 34.0111 30.5943 33.49 30.491C33.417 30.4766 33.2521 30.427 32.9929 30.338C32.7597 30.258 32.485 30.1584 32.193 30.0526L32.1442 30.0349C31.5441 29.8174 30.8506 29.5664 30.4096 29.4572C29.4692 29.2244 28.5421 29.3146 27.8001 30.0127C27.6747 30.1307 27.3472 30.4807 27.2082 31.0117C27.0569 31.5904 27.1557 32.2882 27.7506 32.9845C28.0422 33.3258 28.5303 33.5648 28.9685 33.738C29.4385 33.9237 29.9845 34.0828 30.5055 34.2139C31.4435 34.45 32.3583 34.6092 32.706 34.6697L32.8011 34.6864C32.9928 34.7206 33.1895 34.7709 33.4004 34.8256L33.4282 34.8328C33.6191 34.8823 33.8359 34.9386 34.0322 34.9705C34.2157 35.0003 34.514 35.0345 34.7963 34.9244C34.9576 34.8614 35.1133 34.7517 35.2274 34.5832C35.3372 34.4209 35.3805 34.2452 35.3924 34.0899C35.4154 33.7885 35.4333 33.6525 35.4502 33.5791C35.4537 33.5639 35.4564 33.5553 35.4577 33.5512C35.4577 33.5512 35.4604 33.5472 35.4628 33.5439L35.4659 33.5397C35.5034 33.4888 35.6072 33.387 35.7657 33.2813C35.9215 33.1775 36.0713 33.1094 36.1723 33.0844C36.2213 33.0722 36.2555 33.0637 36.2768 33.0581C36.2814 33.0569 36.3088 33.0498 36.335 33.041C36.339 33.0397 36.3768 33.0273 36.42 33.0059C36.4247 33.0036 36.4307 33.0005 36.4378 32.9967C36.5196 32.9737 36.6358 32.9418 36.7985 32.8978C37.3806 32.7406 37.8066 32.4107 37.951 31.9131C38.0743 31.4879 37.9424 31.0984 37.8034 30.8633C37.6697 30.5962 37.3425 29.9078 37.0403 29.1596C36.7514 28.4443 36.3555 26.6946 36.1836 25.8479C36.174 25.7566 36.1682 25.6029 36.1849 25.4477C36.1938 25.3655 36.2077 25.2949 36.2248 25.2395C36.2331 25.2124 36.2412 25.1924 36.2479 25.1784C36.2538 25.1662 36.2579 25.1602 36.2579 25.1602C36.4151 24.9525 36.5224 24.638 36.6003 24.3657C36.6879 24.0598 36.7704 23.6845 36.8415 23.2744C36.9838 22.4548 37.0877 21.4553 37.0877 20.5241C37.0877 19.4905 36.7153 18.397 36.1929 17.3881C35.6661 16.3707 34.9608 15.3895 34.2341 14.5669C33.5885 13.8362 32.3934 13.0978 31.2517 12.4918C30.0835 11.8717 28.8703 11.3388 28.1042 11.0353L28.1026 11.0395C27.7678 10.919 27.3946 11.0829 27.2613 11.4128C27.1254 11.7494 27.2907 12.1314 27.6305 12.2661Z" fill="#042D48"/>
</svg>
